<svg width="138" height="102" viewBox="0 0 138 102" fill="none" xmlns="http://www.w3.org/2000/svg">
<path d="M96.6959 88.4197C96.8908 88.5673 97.1559 88.5809 97.3643 88.454C97.5727 88.3271 97.6819 88.0856 97.6398 87.845C96.2101 79.6852 99.3958 73.6779 104.912 70.401C110.465 67.1027 118.46 66.5276 126.661 69.4815C126.948 69.5847 127.266 69.4551 127.398 69.1813C127.53 68.9074 127.433 68.5777 127.174 68.4174C123.032 65.853 120.323 63.0396 118.832 60.1524C117.347 57.2749 117.054 54.2917 117.796 51.3333C119.288 45.3825 124.997 39.4442 133.862 34.8485C134.11 34.7202 134.234 34.4367 134.162 34.1672C134.089 33.8976 133.838 33.7145 133.56 33.7271C128.595 33.951 123.787 32.1875 120.428 28.8875C117.08 25.5982 115.143 20.7551 115.953 14.7379C115.983 14.5112 115.881 14.287 115.689 14.1611C115.498 14.0353 115.252 14.0302 115.056 14.1481C105.951 19.6295 99.1932 21.084 94.213 19.8108C89.267 18.5464 85.8846 14.538 83.6452 8.60358C83.5674 8.39724 83.3818 8.25066 83.1631 8.22275C82.9443 8.19483 82.7284 8.29016 82.602 8.47042C79.9391 12.2684 77.3186 15.3198 74.6734 17.4423C72.0316 19.5621 69.3948 20.7323 66.6858 20.8274C61.273 21.0173 55.2108 16.9085 47.9599 6.30111C47.8064 6.07664 47.5205 5.98438 47.2653 6.07698C47.0102 6.16958 46.8506 6.42349 46.8778 6.69377C48.1523 19.3758 45.8933 26.1012 40.5034 29.5332C37.7722 31.2724 34.1703 32.2152 29.6484 32.5958C25.1292 32.9761 19.7419 32.7913 13.4736 32.3146C13.2047 32.2941 12.9561 32.4571 12.868 32.7117C12.7798 32.9662 12.8742 33.2485 13.0979 33.3995C20.122 38.1397 22.6658 43.5517 21.2117 48.3908C19.7362 53.3011 14.0624 57.9825 3.77798 61.0077C3.50221 61.0888 3.32453 61.3557 3.35604 61.6416C3.38755 61.9275 3.61922 62.1502 3.90617 62.1706C16.298 63.05 24.607 66.8108 28.3935 72.6419C32.1546 78.434 31.6015 86.5169 25.6752 96.4302C25.5308 96.6718 25.5761 96.982 25.7839 97.173C25.9916 97.3639 26.3046 97.383 26.5333 97.2188C31.6694 93.5303 36.5099 90.5529 40.8673 88.4563C45.2323 86.356 49.0753 85.1578 52.2254 84.9883C55.3602 84.8196 57.7496 85.668 59.3418 87.5996C60.9563 89.5582 61.8465 92.742 61.7023 97.4472C61.6935 97.7351 61.8924 97.9884 62.1745 98.0481C62.4565 98.1079 62.7403 97.9569 62.8479 97.69C66.3459 89.0152 71.8422 84.4884 77.8807 83.2046C83.9408 81.9161 90.6801 83.865 96.6959 88.4197Z" fill="#E0DCCE" stroke="black" stroke-width="1.18879" stroke-linejoin="round"/>
<path d="M97.0557 87.9474C92.9056 70.7333 105.082 60.4659 121.758 66.4654C104.935 56.0502 115.747 43.5775 133.59 34.3208C123.354 34.7823 112.346 30.4843 114.014 18.0874C95.7082 29.1078 86.8634 22.9429 83.0905 8.81183C71.8368 28.258 61.7696 29.2379 47.4703 6.63524C51.4159 31.578 43.046 37.6662 18.3666 34.8429C30.9934 44.8639 24.642 55.5095 3.9434 61.5788C28.8545 63.3465 38.14 76.7353 26.1824 96.7375C46.4061 81.4717 63.8074 73.6376 63.2212 92.6955C70.3359 75.0838 83.9857 77.3972 97.0557 87.9474Z" fill="white"/>
<mask id="path-3-outside-1_2419_893" maskUnits="userSpaceOnUse" x="22.8026" y="13.2765" width="92.1612" height="77.5477" fill="black">
<rect fill="white" x="22.8026" y="13.2765" width="92.1612" height="77.5477"/>
<path d="M45.4 42.7301C41.8687 41.5357 32.0316 43.8778 29.9116 47.217C28.1638 49.9425 28.8414 53.7747 32.3455 55.1641C34.9912 56.2133 37.186 54.8903 37.3717 54.701C37.3678 54.6863 37.3825 54.6825 37.3972 54.6787C37.4157 54.6895 37.4304 54.6857 37.449 54.6965C37.6594 55.3777 37.8274 55.8976 37.9517 56.1315C39.4346 59.2059 42.8685 58.6563 43.7596 57.0307C43.5129 55.4351 43.0167 53.607 42.9474 53.3432C42.9474 53.3432 42.9435 53.3285 42.9543 53.3101C42.969 53.3062 42.9946 53.2839 43.0092 53.2801C43.0092 53.2801 43.0239 53.2763 43.0386 53.2725C43.2828 53.3655 46.0964 53.3219 47.9016 51.1137C50.2732 48.1944 48.6168 43.8029 45.4 42.7301ZM36.2079 50.8702C35.8406 50.9658 35.4626 51.0799 35.0946 51.1131C34.6308 51.1399 34.3296 50.8895 34.1832 50.3326C34.0253 49.7317 34.8215 48.8198 35.9412 49.1389C35.999 49.3587 36.049 49.5492 36.0953 49.7251C36.1615 50.0367 36.2462 50.3591 36.3271 50.6669C36.3278 50.7293 36.2666 50.8549 36.2079 50.8702ZM43.5116 48.9215C43.1598 49.0757 42.7887 49.1567 42.4215 49.2523C42.3627 49.2676 42.2291 49.1772 42.199 49.1224C42.068 48.6241 41.9602 48.2137 41.8022 47.6128C42.6068 46.7927 43.7497 47.1997 43.9076 47.8006C44.054 48.3575 43.9292 48.7188 43.5116 48.9215Z"/>
<path d="M61.3603 46.5991C63.7242 43.6505 61.8841 38.978 59.1363 38.018C55.6637 36.8082 49.7183 39.3271 48.7639 40.8909C48.7599 42.7866 50.8293 50.4215 51.4219 51.6609C52.924 54.8085 56.358 54.2589 57.2413 52.604C56.9908 50.9938 56.4831 49.1217 56.4137 48.8579C56.4099 48.8432 56.406 48.8286 56.4207 48.8248C56.4354 48.8209 56.4609 48.7986 56.4756 48.7948C56.4864 48.7763 56.4864 48.7763 56.505 48.7872C56.76 48.8617 59.5666 48.8512 61.3603 46.5991ZM57.347 43.2127C57.4972 43.7843 57.3725 44.1456 56.9549 44.3483C56.6031 44.5025 56.232 44.5835 55.8647 44.6791C55.806 44.6944 55.6762 44.6186 55.6569 44.5453C55.5113 44.0508 55.3996 43.6258 55.2378 43.0103C56.0571 42.1863 57.1852 42.5972 57.347 43.2127Z"/>
<path d="M68.541 38.0163C68.4969 38.0278 68.4528 38.0392 68.4088 38.0507C68.3115 37.9195 68.1995 37.792 68.1061 37.6754C67.1694 36.6197 66.5263 35.785 65.5239 34.7776C64.2944 33.5632 61.1793 34.6092 60.731 37.2626C62.5508 39.529 64.2655 40.9772 66.1738 42.9231C66.3452 43.0977 66.5653 43.3379 66.5164 43.5698C66.348 44.3026 66.3769 43.935 65.8947 45.5637C64.9862 48.5562 68.0924 50.5816 70.871 48.1357C71.6694 46.4559 74.2589 37.4983 74.6966 35.521C75.3477 32.5643 71.9592 31.6145 69.7885 32.7904C69.412 33.687 68.6706 37.4345 68.541 38.0163Z"/>
<path d="M86.8119 30.0996C85.1412 30.5503 78.9632 32.0649 77.1432 32.6641C74.3946 33.552 75.071 36.9617 76.3231 37.904C77.3242 37.8313 78.4073 37.5336 79.3614 37.2225C80.0446 39.9415 80.9903 43.0618 81.349 43.8296C82.8621 46.9588 86.2061 46.6049 87.0895 44.9499C86.8525 42.9134 85.7913 38.3982 84.9875 35.7577C85.0462 35.7424 85.4057 35.6174 85.9122 35.4543C89.1672 34.4032 87.8524 30.8935 86.8119 30.0996Z"/>
<path d="M95.0741 27.9957C91.0384 29.0621 89.6625 31.7691 89.2801 34.0765C88.9865 35.7658 89.439 37.9654 90.3766 39.7413C91.3597 41.6305 92.8442 42.9195 94.9601 43.3863C97.1796 43.8889 99.2931 43.5108 101.274 42.4471C103.727 41.1508 105.021 39.0912 105.144 36.3346C105.224 34.247 104.561 32.3839 103.378 30.6877C102.633 29.6447 100.075 26.6621 95.0741 27.9957ZM96.5265 33.2233C97.5695 32.9517 98.7599 33.6595 99.0924 35.3424C99.4395 37.0214 98.6426 37.8709 97.8756 38.1176C97.1272 38.3751 95.8382 38.0687 95.2886 36.3954C94.7127 34.682 95.4395 33.5063 96.5265 33.2233Z"/>
<path d="M107.041 61.4276C106.842 61.9174 106.48 62.3667 105.958 62.7754C105.443 63.1921 104.874 63.4092 104.249 63.4268C103.978 63.4345 103.705 63.4011 103.431 63.3267C102.917 63.1771 102.482 62.9349 102.126 62.6002C101.503 62.4044 101.008 62.09 100.642 61.6571C100.283 61.2158 100.095 60.7082 100.079 60.1341C100.069 59.7979 100.132 59.4268 100.268 59.0208C100.488 58.4072 100.857 57.9167 101.372 57.5492C101.888 57.1736 102.446 56.9773 103.046 56.9604C103.523 56.9469 104.02 57.0642 104.538 57.3123C104.823 57.493 105.033 57.6553 105.169 57.7993C105.443 57.8818 105.663 57.9618 105.83 58.0392C106.282 58.2973 106.626 58.6364 106.86 59.0566C107.094 59.4686 107.218 59.8878 107.23 60.3142C107.244 60.7735 107.181 61.1446 107.041 61.4276ZM105.862 56.5978L102.405 57.003C102.366 56.7825 102.333 56.4962 102.306 56.144L101.125 56.2758C100.645 52.0132 100.369 48.6272 100.295 46.1178C100.267 45.1911 100.277 44.4152 100.325 43.7901C100.768 43.7612 101.2 43.7408 101.619 43.729C103.337 43.6806 104.74 43.8011 105.826 44.0906C105.772 44.207 105.723 44.3685 105.68 44.5749C106.3 44.6559 106.775 44.7369 107.107 44.8178C107.069 44.9338 107.016 45.1076 106.949 45.3393C106.89 45.5626 106.781 46.0622 106.623 46.8382C106.473 47.6057 106.34 48.4138 106.226 49.2624C106.119 50.1108 106.024 51.201 105.939 52.5329C105.864 53.8647 105.838 55.2197 105.862 56.5978ZM101.339 55.9989L104.316 55.6565C104.293 54.3275 104.317 53.0301 104.386 51.7642C104.464 50.4898 104.564 49.4241 104.687 48.5671C104.809 47.7018 104.931 46.9351 105.051 46.2669C105.179 45.5903 105.288 45.0907 105.377 44.7681L105.523 44.2838C105.009 44.1424 104.34 44.0504 103.516 44.008C102.691 43.9655 101.996 43.9605 101.429 43.9929L100.567 44.0418C100.511 45.2089 100.537 46.6773 100.647 48.447C100.765 50.2165 100.91 51.9155 101.081 53.5439L101.339 55.9989ZM105.524 60.6208C105.648 60.3547 105.713 60.0492 105.719 59.7043C105.725 59.3512 105.623 58.9642 105.413 58.5434C105.203 58.1225 104.873 57.7912 104.421 57.5495C103.685 57.1352 102.918 57.0871 102.121 57.405C101.324 57.7147 100.785 58.2757 100.504 59.088C100.246 59.8257 100.27 60.4939 100.576 61.0927C100.89 61.6912 101.437 62.1108 102.218 62.3514C102.915 62.5616 103.579 62.4649 104.209 62.0614C104.847 61.6577 105.285 61.1775 105.524 60.6208Z"/>
<path d="M85.9317 64.5881L80.903 64.6958L80.9788 64.0556L79.5673 64.0907L81.8882 48.657L86.2155 48.1699L86.5214 48.891L87.5511 48.7751L90.0587 54.6361L92.7259 47.338L97.0303 47.4108C97.0527 47.6065 97.0837 47.8053 97.1233 48.0073L98.3782 48.0146C98.5491 49.0028 98.7703 50.2495 99.0417 51.7547C99.3203 53.251 99.7566 55.4024 100.351 58.209C100.945 61.0156 101.39 62.7367 101.686 63.3721L95.6768 64.2467C95.6545 64.051 95.6324 63.7852 95.6105 63.4491L94.3412 63.6415C94.2504 62.7022 94.1747 61.6785 94.1143 60.5706L93.4251 63.0139C91.3458 63.2892 89.8579 63.597 88.9615 63.9374L88.6237 63.0465C88.1644 63.156 87.8277 63.2517 87.6135 63.3336L86.2444 59.611C86.0683 62.4878 85.9641 64.1468 85.9317 64.5881ZM79.8595 63.8224L84.3555 63.7251L84.9178 55.0662L87.7747 63.0058C88.1241 62.8757 88.6387 62.7434 89.3187 62.6091C90.0059 62.4657 90.606 62.3568 91.119 62.2826L91.8762 62.1726L94.2569 53.7796C94.2231 54.3532 94.2204 55.4517 94.2487 57.0751C94.2851 58.6977 94.3298 60.1748 94.3827 61.5065L94.4498 63.5054L99.9925 62.5719C99.7183 61.9835 99.3152 60.4476 98.783 57.9643C98.2508 55.481 97.789 53.1426 97.3975 50.949L96.8103 47.6585L92.916 47.5891L89.5496 56.6999L86.0364 48.4501L82.1259 48.8903L79.8595 63.8224Z"/>
<path d="M45.9231 64.4798C46.1647 65.2569 45.7834 65.9751 44.7792 66.6344C44.751 66.5203 44.6912 66.2664 44.5999 65.8727C44.5086 65.479 44.4294 65.157 44.3623 64.9067C44.7629 64.6033 45.1186 64.3765 45.4292 64.2261C45.5254 64.1796 45.5993 64.153 45.6508 64.1463C45.782 64.2653 45.8727 64.3764 45.9231 64.4798ZM48.9876 70.3178C49.1137 70.5578 49.1552 70.8023 49.112 71.0513C49.0762 71.2967 48.9688 71.5266 48.7898 71.7409C48.6109 71.9552 48.4157 72.1455 48.2041 72.3117C47.9964 72.4669 47.7611 72.6219 47.4982 72.7764C47.0427 72.0481 46.6225 71.289 46.2376 70.4991C46.9773 70.1412 47.7064 69.9024 48.4251 69.7826C48.6412 69.8697 48.8287 70.0481 48.9876 70.3178ZM42.3602 60.7986C41.6575 61.1387 40.941 61.563 40.2107 62.0715C39.4878 62.5764 38.9387 62.9972 38.5634 63.3339L38.0005 63.8389C38.1354 64.2845 38.322 64.883 38.5602 65.6344C38.8022 66.3748 39.2896 67.7126 40.0224 69.6478C40.7553 71.583 41.4832 73.2925 42.2063 74.7762C42.7604 75.913 43.3464 76.9842 43.9644 77.9897C44.2816 77.9091 44.6729 77.7928 45.1381 77.6407C45.174 77.7145 45.2735 77.8716 45.4364 78.1121C46.9081 77.7557 48.3319 77.2446 49.7078 76.5788C50.1886 76.3461 50.6364 76.102 51.0512 75.8466C51.4735 75.5875 51.8924 75.2935 52.308 74.9647C52.7273 74.6432 53.0843 74.2971 53.379 73.9264C53.6847 73.5596 53.9373 73.1682 54.1368 72.7523C54.3328 72.3291 54.4445 71.8736 54.4719 71.386C54.4958 70.8909 54.4241 70.3874 54.2568 69.8753C54.079 69.3228 53.8431 68.8576 53.5493 68.4798C53.2593 68.091 52.9369 67.8046 52.582 67.6205C52.2272 67.4364 51.8736 67.3111 51.5212 67.2444C51.1687 67.1778 50.7992 67.1605 50.4126 67.1925C50.1411 67.1231 49.9521 67.0823 49.8456 67.07C50.4714 66.3658 50.8899 65.6114 51.101 64.8067C51.3122 64.002 51.2218 63.1974 50.8296 62.3928C50.7037 62.1344 50.5556 61.8868 50.3853 61.6499C49.4713 60.4684 48.276 59.9384 46.7995 60.0599C45.5487 59.7255 44.0689 59.9718 42.3602 60.7986ZM42.6102 64.6598C42.9341 65.9809 43.2064 66.9804 43.427 67.6582C43.6897 67.5219 43.9671 67.3877 44.2591 67.2555C44.5586 67.1197 44.8456 66.9489 45.1201 66.7431C45.3946 66.5373 45.6305 66.3273 45.8278 66.1132C46.0326 65.8956 46.1678 65.6385 46.2336 65.3421C46.2958 65.0383 46.2699 64.7225 46.1558 64.3945C46.0129 64.0075 45.7931 63.7535 45.4965 63.6325C45.2072 63.5079 44.9002 63.4969 44.5753 63.5994C44.2542 63.6909 43.9439 63.8137 43.6442 63.9678C43.3445 64.122 43.0963 64.2786 42.8996 64.4376L42.6102 64.6598ZM46.3416 73.5825C46.4413 73.5433 46.5762 73.4918 46.7461 73.4278C46.9198 73.3528 47.2121 73.2023 47.6229 72.9761C48.0376 72.739 48.3823 72.4991 48.6572 72.2566C48.9395 72.0106 49.1508 71.7031 49.2909 71.3342C49.4349 70.9543 49.4115 70.578 49.2206 70.2051C49.0513 69.8765 48.7927 69.6458 48.4446 69.5132C48.0966 69.3806 47.7459 69.3268 47.3925 69.3519C47.039 69.3769 46.6427 69.4547 46.2035 69.5851C45.7681 69.7046 45.4247 69.816 45.1734 69.9194C44.9221 70.0227 44.6744 70.1335 44.4303 70.2516C44.9082 71.2884 45.5453 72.3987 46.3416 73.5825ZM47.1398 67.7362C47.4687 67.6044 47.8065 67.5003 48.1531 67.4238C48.5036 67.3363 48.905 67.2971 49.3574 67.3063C49.8062 67.308 50.2211 67.3809 50.6021 67.525C50.9905 67.6655 51.3628 67.9323 51.719 68.3256C52.0716 68.7114 52.3475 69.2119 52.5467 69.8271C52.728 70.4053 52.7806 70.9729 52.7045 71.5297C52.6323 72.0755 52.4576 72.5705 52.1805 73.0148C51.8998 73.4517 51.5475 73.8731 51.1237 74.2789C50.7072 74.6811 50.2453 75.0369 49.7379 75.3463C49.2305 75.6557 48.7123 75.943 48.1833 76.2081C47.6617 76.4696 47.1534 76.6928 46.6584 76.8775C46.1708 77.0588 45.735 77.2149 45.351 77.346C44.9708 77.4662 44.6681 77.5579 44.443 77.6212L44.0888 77.7105C43.4349 76.6312 42.8166 75.4844 42.234 74.2702C41.6552 73.045 41.1224 71.8204 40.6355 70.5964C40.1525 69.3614 39.7361 68.2537 39.3864 67.2735C39.0405 66.2823 38.7716 65.4773 38.5797 64.8586L38.2866 63.9194C38.3498 63.8615 38.4315 63.7854 38.5319 63.6912C38.6397 63.5935 38.8643 63.4072 39.2057 63.1325C39.5472 62.8578 39.8922 62.5996 40.2406 62.358C40.5929 62.1055 41.0226 61.8336 41.5298 61.5426C42.0334 61.2441 42.5199 60.995 42.9894 60.7953C43.4552 60.5881 43.9609 60.4254 44.5067 60.3073C45.0563 60.1782 45.5699 60.1349 46.0477 60.1774C46.5219 60.2125 46.993 60.3539 47.4612 60.6018C47.9368 60.846 48.354 61.2052 48.713 61.6792C49.1228 62.2198 49.3685 62.7897 49.4502 63.3887C49.5283 63.9804 49.4595 64.5428 49.244 65.0759C49.0322 65.598 48.7473 66.0826 48.3892 66.5295C48.0311 66.9765 47.6147 67.3787 47.1398 67.7362Z"/>
<path d="M61.1248 62.708C60.9356 61.8031 60.658 61.0258 60.2921 60.3759C59.9978 59.8669 59.6527 59.4949 59.2569 59.2598C58.991 59.3193 58.7132 59.4085 58.4233 59.5274C58.0471 59.6998 57.7584 59.9692 57.5573 60.3355C57.3537 60.694 57.238 61.0975 57.2104 61.5461C57.1906 61.9921 57.2138 62.4373 57.2798 62.8817C57.3512 63.3157 57.4616 63.7501 57.611 64.1849C57.8367 64.8022 58.0711 65.3261 58.3142 65.7568C58.6313 66.3361 58.976 66.747 59.3483 66.9896L59.5831 66.9142C59.9093 66.8009 60.1838 66.6611 60.4065 66.4948C60.6266 66.3207 60.8213 66.0814 60.9907 65.7771C61.16 65.4727 61.2562 65.0625 61.2792 64.5464C61.3023 64.0304 61.2508 63.4176 61.1248 62.708ZM66.929 60.8192C67.1701 61.4573 67.35 62.1065 67.4687 62.7667C67.5873 63.427 67.6264 64.1214 67.5857 64.85C67.5504 65.5683 67.4231 66.2428 67.2039 66.8735C66.9846 67.5043 66.6265 68.1063 66.1295 68.6797C65.6325 69.253 65.0155 69.7226 64.2785 70.0885L64.302 70.081C63.7087 70.3835 63.1342 70.6239 62.5784 70.8023C60.786 71.3776 59.1674 71.4359 57.7229 70.977C55.4092 70.823 53.6573 69.7085 52.4672 67.6334C51.9456 66.6628 51.5804 65.6679 51.3714 64.6487C51.1604 63.5698 51.0905 62.5663 51.1617 61.6383C51.2303 60.7024 51.4029 59.9012 51.6797 59.2348C51.954 58.5605 52.3187 57.9521 52.7738 57.4094C53.2367 56.8642 53.7117 56.423 54.1987 56.0856C54.6935 55.7458 55.2268 55.4582 55.7987 55.2229C57.1763 54.7807 58.6084 54.7737 60.0949 55.2018C61.2906 55.2922 62.4187 55.6543 63.4793 56.2881C64.5477 56.9194 65.4274 57.8354 66.1185 59.0361C66.4819 59.6781 66.752 60.2725 66.929 60.8192ZM61.3589 62.7104C61.4975 63.4591 61.5552 64.1044 61.5319 64.6464C61.5139 65.1781 61.415 65.6064 61.235 65.9314C61.0604 66.2461 60.8552 66.493 60.6194 66.6721C60.3836 66.8513 60.0909 67.0013 59.7412 67.1221C58.9165 67.4041 58.1671 67.2911 57.493 66.7833C56.8241 66.2652 56.2517 65.3109 55.7757 63.9205C55.6212 63.4701 55.5084 63.0148 55.4373 62.5549C55.3662 62.0949 55.3419 61.6329 55.3645 61.1687C55.3923 60.6942 55.5173 60.2661 55.7394 59.8845C55.9615 59.5028 56.2789 59.2156 56.6917 59.0227C57.8387 58.4822 58.8265 58.5574 59.655 59.2484C60.481 59.9316 61.049 61.0856 61.3589 62.7104ZM65.0937 60.5547C64.7466 59.5626 64.293 58.6952 63.7329 57.9525C63.1703 57.202 62.567 56.6197 61.9232 56.2056C61.2872 55.789 60.6138 55.4836 59.9028 55.2893C59.1972 55.0847 58.51 55.0036 57.841 55.0459C57.1799 55.0856 56.5531 55.2179 55.9605 55.4425C55.3758 55.6647 54.84 55.9315 54.3532 56.2429C53.8718 56.544 53.4036 56.9529 52.9488 57.4696C52.4939 57.9863 52.1334 58.5676 51.8672 59.2134C51.601 59.8592 51.4376 60.6488 51.3768 61.5822C51.316 62.5155 51.4001 63.536 51.629 64.6436C51.9303 66.0815 52.4354 67.2816 53.1443 68.2438C53.8585 69.1956 54.7028 69.8687 55.6772 70.2629C56.649 70.6493 57.722 70.7876 58.8962 70.678C60.0782 70.5659 61.2951 70.2012 62.5469 69.5839C63.2526 69.228 63.8447 68.775 64.3233 68.2249C64.8019 67.6747 65.1442 67.0906 65.3503 66.4727C65.5564 65.8548 65.6757 65.1958 65.7083 64.4956C65.7487 63.793 65.7121 63.1193 65.5985 62.4747C65.4902 61.8198 65.3219 61.1798 65.0937 60.5547Z"/>
<path d="M74.8332 58.3247C74.695 57.4108 74.4615 56.6192 74.1326 55.95C73.8672 55.4254 73.5435 55.0348 73.1615 54.778C72.8926 54.8226 72.6102 54.8961 72.3141 54.9987C71.9288 55.1499 71.6255 55.4027 71.4041 55.7572C71.1806 56.1037 71.0425 56.5002 70.9898 56.9464C70.9451 57.3906 70.9432 57.8364 70.9843 58.2837C71.0312 58.721 71.117 59.1609 71.2418 59.6033C71.4326 60.2322 71.6373 60.7683 71.8558 61.2118C72.14 61.8078 72.4612 62.2373 72.8193 62.5003L73.058 62.4382C73.3901 62.3432 73.672 62.2189 73.9036 62.0653C74.1332 61.9038 74.341 61.6758 74.5272 61.3814C74.7133 61.0869 74.8324 60.6828 74.8843 60.1688C74.9363 59.6549 74.9192 59.0402 74.8332 58.3247ZM80.7346 56.7627C80.9396 57.4133 81.0828 58.0715 81.1643 58.7373C81.2457 59.403 81.2458 60.0985 81.1643 60.8237C81.0888 61.5388 80.9238 62.2051 80.6696 62.8226C80.4153 63.4401 80.024 64.0212 79.4956 64.5659C78.9672 65.1106 78.3248 65.545 77.5684 65.8691L77.5922 65.8629C76.9829 66.1318 76.3957 66.3399 75.8308 66.4869C74.0088 66.9613 72.3894 66.9292 70.9727 66.3906C68.6712 66.1078 66.9844 64.8974 65.9124 62.7593C65.4461 61.7612 65.1371 60.7475 64.9856 59.7183C64.8355 58.6294 64.8219 57.6237 64.945 56.7011C65.0659 55.7706 65.2833 54.9803 65.597 54.3304C65.9087 53.6725 66.3069 53.0854 66.7918 52.569C67.2846 52.0506 67.7836 51.6365 68.2887 51.3269C68.8019 51.0152 69.3505 50.7578 69.9348 50.5548C71.3351 50.1902 72.7654 50.2631 74.2257 50.7734C75.4145 50.9303 76.5207 51.3547 77.5441 52.0467C78.5755 52.7365 79.4026 53.7001 80.0253 54.9373C80.3521 55.5986 80.5885 56.2071 80.7346 56.7627ZM75.0668 58.3402C75.1633 59.0954 75.1847 59.7429 75.131 60.2827C75.0833 60.8125 74.9604 61.2346 74.7625 61.5491C74.5705 61.8535 74.3518 62.0886 74.1063 62.2543C73.8608 62.42 73.5601 62.5534 73.2041 62.6545C72.3649 62.89 71.623 62.7355 70.9783 62.1909C70.3395 61.6363 69.8214 60.6517 69.4241 59.237C69.2951 58.7786 69.208 58.3179 69.1628 57.8547C69.1176 57.3915 69.1193 56.9288 69.1678 56.4667C69.2222 55.9945 69.371 55.5741 69.6142 55.2055C69.8573 54.8368 70.1904 54.5678 70.6134 54.3983C71.789 53.9225 72.7711 54.0527 73.5596 54.7889C74.346 55.517 74.8484 56.7008 75.0668 58.3402ZM78.9168 56.3964C78.6259 55.3865 78.2217 54.4952 77.704 53.7225C77.1843 52.9418 76.6146 52.3268 75.995 51.8775C75.3833 51.4261 74.728 51.0836 74.029 50.85C73.3359 50.6064 72.6542 50.4871 71.984 50.492C71.3216 50.4948 70.6883 50.5918 70.084 50.7831C69.4877 50.9723 68.9378 51.2088 68.4343 51.4925C67.9367 51.7663 67.4463 52.1484 66.9631 52.6389C66.48 53.1294 66.0874 53.6896 65.7854 54.3195C65.4834 54.9494 65.2759 55.7286 65.1629 56.6571C65.0499 57.5855 65.0766 58.609 65.2431 59.7276C65.4633 61.18 65.9004 62.4062 66.5543 63.4064C67.2141 64.3965 68.0193 65.1156 68.9702 65.5635C69.9189 66.0034 70.9825 66.2015 72.1611 66.1575C73.3476 66.1115 74.5832 65.8152 75.8677 65.2687C76.5922 64.9529 77.2089 64.5336 77.7176 64.011C78.2263 63.4884 78.6009 62.9244 78.8413 62.319C79.0817 61.7136 79.2378 61.0623 79.3096 60.3651C79.3894 59.6659 79.3906 58.9913 79.3133 58.3414C79.2419 57.6815 79.1097 57.0331 78.9168 56.3964Z"/>
</mask>
<path d="M45.4 42.7301C41.8687 41.5357 32.0316 43.8778 29.9116 47.217C28.1638 49.9425 28.8414 53.7747 32.3455 55.1641C34.9912 56.2133 37.186 54.8903 37.3717 54.701C37.3678 54.6863 37.3825 54.6825 37.3972 54.6787C37.4157 54.6895 37.4304 54.6857 37.449 54.6965C37.6594 55.3777 37.8274 55.8976 37.9517 56.1315C39.4346 59.2059 42.8685 58.6563 43.7596 57.0307C43.5129 55.4351 43.0167 53.607 42.9474 53.3432C42.9474 53.3432 42.9435 53.3285 42.9543 53.3101C42.969 53.3062 42.9946 53.2839 43.0092 53.2801C43.0092 53.2801 43.0239 53.2763 43.0386 53.2725C43.2828 53.3655 46.0964 53.3219 47.9016 51.1137C50.2732 48.1944 48.6168 43.8029 45.4 42.7301ZM36.2079 50.8702C35.8406 50.9658 35.4626 51.0799 35.0946 51.1131C34.6308 51.1399 34.3296 50.8895 34.1832 50.3326C34.0253 49.7317 34.8215 48.8198 35.9412 49.1389C35.999 49.3587 36.049 49.5492 36.0953 49.7251C36.1615 50.0367 36.2462 50.3591 36.3271 50.6669C36.3278 50.7293 36.2666 50.8549 36.2079 50.8702ZM43.5116 48.9215C43.1598 49.0757 42.7887 49.1567 42.4215 49.2523C42.3627 49.2676 42.2291 49.1772 42.199 49.1224C42.068 48.6241 41.9602 48.2137 41.8022 47.6128C42.6068 46.7927 43.7497 47.1997 43.9076 47.8006C44.054 48.3575 43.9292 48.7188 43.5116 48.9215Z" fill="black"/>
<path d="M61.3603 46.5991C63.7242 43.6505 61.8841 38.978 59.1363 38.018C55.6637 36.8082 49.7183 39.3271 48.7639 40.8909C48.7599 42.7866 50.8293 50.4215 51.4219 51.6609C52.924 54.8085 56.358 54.2589 57.2413 52.604C56.9908 50.9938 56.4831 49.1217 56.4137 48.8579C56.4099 48.8432 56.406 48.8286 56.4207 48.8248C56.4354 48.8209 56.4609 48.7986 56.4756 48.7948C56.4864 48.7763 56.4864 48.7763 56.505 48.7872C56.76 48.8617 59.5666 48.8512 61.3603 46.5991ZM57.347 43.2127C57.4972 43.7843 57.3725 44.1456 56.9549 44.3483C56.6031 44.5025 56.232 44.5835 55.8647 44.6791C55.806 44.6944 55.6762 44.6186 55.6569 44.5453C55.5113 44.0508 55.3996 43.6258 55.2378 43.0103C56.0571 42.1863 57.1852 42.5972 57.347 43.2127Z" fill="black"/>
<path d="M68.541 38.0163C68.4969 38.0278 68.4528 38.0392 68.4088 38.0507C68.3115 37.9195 68.1995 37.792 68.1061 37.6754C67.1694 36.6197 66.5263 35.785 65.5239 34.7776C64.2944 33.5632 61.1793 34.6092 60.731 37.2626C62.5508 39.529 64.2655 40.9772 66.1738 42.9231C66.3452 43.0977 66.5653 43.3379 66.5164 43.5698C66.348 44.3026 66.3769 43.935 65.8947 45.5637C64.9862 48.5562 68.0924 50.5816 70.871 48.1357C71.6694 46.4559 74.2589 37.4983 74.6966 35.521C75.3477 32.5643 71.9592 31.6145 69.7885 32.7904C69.412 33.687 68.6706 37.4345 68.541 38.0163Z" fill="black"/>
<path d="M86.8119 30.0996C85.1412 30.5503 78.9632 32.0649 77.1432 32.6641C74.3946 33.552 75.071 36.9617 76.3231 37.904C77.3242 37.8313 78.4073 37.5336 79.3614 37.2225C80.0446 39.9415 80.9903 43.0618 81.349 43.8296C82.8621 46.9588 86.2061 46.6049 87.0895 44.9499C86.8525 42.9134 85.7913 38.3982 84.9875 35.7577C85.0462 35.7424 85.4057 35.6174 85.9122 35.4543C89.1672 34.4032 87.8524 30.8935 86.8119 30.0996Z" fill="black"/>
<path d="M95.0741 27.9957C91.0384 29.0621 89.6625 31.7691 89.2801 34.0765C88.9865 35.7658 89.439 37.9654 90.3766 39.7413C91.3597 41.6305 92.8442 42.9195 94.9601 43.3863C97.1796 43.8889 99.2931 43.5108 101.274 42.4471C103.727 41.1508 105.021 39.0912 105.144 36.3346C105.224 34.247 104.561 32.3839 103.378 30.6877C102.633 29.6447 100.075 26.6621 95.0741 27.9957ZM96.5265 33.2233C97.5695 32.9517 98.7599 33.6595 99.0924 35.3424C99.4395 37.0214 98.6426 37.8709 97.8756 38.1176C97.1272 38.3751 95.8382 38.0687 95.2886 36.3954C94.7127 34.682 95.4395 33.5063 96.5265 33.2233Z" fill="black"/>
<path d="M107.041 61.4276C106.842 61.9174 106.48 62.3667 105.958 62.7754C105.443 63.1921 104.874 63.4092 104.249 63.4268C103.978 63.4345 103.705 63.4011 103.431 63.3267C102.917 63.1771 102.482 62.9349 102.126 62.6002C101.503 62.4044 101.008 62.09 100.642 61.6571C100.283 61.2158 100.095 60.7082 100.079 60.1341C100.069 59.7979 100.132 59.4268 100.268 59.0208C100.488 58.4072 100.857 57.9167 101.372 57.5492C101.888 57.1736 102.446 56.9773 103.046 56.9604C103.523 56.9469 104.02 57.0642 104.538 57.3123C104.823 57.493 105.033 57.6553 105.169 57.7993C105.443 57.8818 105.663 57.9618 105.83 58.0392C106.282 58.2973 106.626 58.6364 106.86 59.0566C107.094 59.4686 107.218 59.8878 107.23 60.3142C107.244 60.7735 107.181 61.1446 107.041 61.4276ZM105.862 56.5978L102.405 57.003C102.366 56.7825 102.333 56.4962 102.306 56.144L101.125 56.2758C100.645 52.0132 100.369 48.6272 100.295 46.1178C100.267 45.1911 100.277 44.4152 100.325 43.7901C100.768 43.7612 101.2 43.7408 101.619 43.729C103.337 43.6806 104.74 43.8011 105.826 44.0906C105.772 44.207 105.723 44.3685 105.68 44.5749C106.3 44.6559 106.775 44.7369 107.107 44.8178C107.069 44.9338 107.016 45.1076 106.949 45.3393C106.89 45.5626 106.781 46.0622 106.623 46.8382C106.473 47.6057 106.34 48.4138 106.226 49.2624C106.119 50.1108 106.024 51.201 105.939 52.5329C105.864 53.8647 105.838 55.2197 105.862 56.5978ZM101.339 55.9989L104.316 55.6565C104.293 54.3275 104.317 53.0301 104.386 51.7642C104.464 50.4898 104.564 49.4241 104.687 48.5671C104.809 47.7018 104.931 46.9351 105.051 46.2669C105.179 45.5903 105.288 45.0907 105.377 44.7681L105.523 44.2838C105.009 44.1424 104.34 44.0504 103.516 44.008C102.691 43.9655 101.996 43.9605 101.429 43.9929L100.567 44.0418C100.511 45.2089 100.537 46.6773 100.647 48.447C100.765 50.2165 100.91 51.9155 101.081 53.5439L101.339 55.9989ZM105.524 60.6208C105.648 60.3547 105.713 60.0492 105.719 59.7043C105.725 59.3512 105.623 58.9642 105.413 58.5434C105.203 58.1225 104.873 57.7912 104.421 57.5495C103.685 57.1352 102.918 57.0871 102.121 57.405C101.324 57.7147 100.785 58.2757 100.504 59.088C100.246 59.8257 100.27 60.4939 100.576 61.0927C100.89 61.6912 101.437 62.1108 102.218 62.3514C102.915 62.5616 103.579 62.4649 104.209 62.0614C104.847 61.6577 105.285 61.1775 105.524 60.6208Z" fill="black"/>
<path d="M85.9317 64.5881L80.903 64.6958L80.9788 64.0556L79.5673 64.0907L81.8882 48.657L86.2155 48.1699L86.5214 48.891L87.5511 48.7751L90.0587 54.6361L92.7259 47.338L97.0303 47.4108C97.0527 47.6065 97.0837 47.8053 97.1233 48.0073L98.3782 48.0146C98.5491 49.0028 98.7703 50.2495 99.0417 51.7547C99.3203 53.251 99.7566 55.4024 100.351 58.209C100.945 61.0156 101.39 62.7367 101.686 63.3721L95.6768 64.2467C95.6545 64.051 95.6324 63.7852 95.6105 63.4491L94.3412 63.6415C94.2504 62.7022 94.1747 61.6785 94.1143 60.5706L93.4251 63.0139C91.3458 63.2892 89.8579 63.597 88.9615 63.9374L88.6237 63.0465C88.1644 63.156 87.8277 63.2517 87.6135 63.3336L86.2444 59.611C86.0683 62.4878 85.9641 64.1468 85.9317 64.5881ZM79.8595 63.8224L84.3555 63.7251L84.9178 55.0662L87.7747 63.0058C88.1241 62.8757 88.6387 62.7434 89.3187 62.6091C90.0059 62.4657 90.606 62.3568 91.119 62.2826L91.8762 62.1726L94.2569 53.7796C94.2231 54.3532 94.2204 55.4517 94.2487 57.0751C94.2851 58.6977 94.3298 60.1748 94.3827 61.5065L94.4498 63.5054L99.9925 62.5719C99.7183 61.9835 99.3152 60.4476 98.783 57.9643C98.2508 55.481 97.789 53.1426 97.3975 50.949L96.8103 47.6585L92.916 47.5891L89.5496 56.6999L86.0364 48.4501L82.1259 48.8903L79.8595 63.8224Z" fill="black"/>
<path d="M45.9231 64.4798C46.1647 65.2569 45.7834 65.9751 44.7792 66.6344C44.751 66.5203 44.6912 66.2664 44.5999 65.8727C44.5086 65.479 44.4294 65.157 44.3623 64.9067C44.7629 64.6033 45.1186 64.3765 45.4292 64.2261C45.5254 64.1796 45.5993 64.153 45.6508 64.1463C45.782 64.2653 45.8727 64.3764 45.9231 64.4798ZM48.9876 70.3178C49.1137 70.5578 49.1552 70.8023 49.112 71.0513C49.0762 71.2967 48.9688 71.5266 48.7898 71.7409C48.6109 71.9552 48.4157 72.1455 48.2041 72.3117C47.9964 72.4669 47.7611 72.6219 47.4982 72.7764C47.0427 72.0481 46.6225 71.289 46.2376 70.4991C46.9773 70.1412 47.7064 69.9024 48.4251 69.7826C48.6412 69.8697 48.8287 70.0481 48.9876 70.3178ZM42.3602 60.7986C41.6575 61.1387 40.941 61.563 40.2107 62.0715C39.4878 62.5764 38.9387 62.9972 38.5634 63.3339L38.0005 63.8389C38.1354 64.2845 38.322 64.883 38.5602 65.6344C38.8022 66.3748 39.2896 67.7126 40.0224 69.6478C40.7553 71.583 41.4832 73.2925 42.2063 74.7762C42.7604 75.913 43.3464 76.9842 43.9644 77.9897C44.2816 77.9091 44.6729 77.7928 45.1381 77.6407C45.174 77.7145 45.2735 77.8716 45.4364 78.1121C46.9081 77.7557 48.3319 77.2446 49.7078 76.5788C50.1886 76.3461 50.6364 76.102 51.0512 75.8466C51.4735 75.5875 51.8924 75.2935 52.308 74.9647C52.7273 74.6432 53.0843 74.2971 53.379 73.9264C53.6847 73.5596 53.9373 73.1682 54.1368 72.7523C54.3328 72.3291 54.4445 71.8736 54.4719 71.386C54.4958 70.8909 54.4241 70.3874 54.2568 69.8753C54.079 69.3228 53.8431 68.8576 53.5493 68.4798C53.2593 68.091 52.9369 67.8046 52.582 67.6205C52.2272 67.4364 51.8736 67.3111 51.5212 67.2444C51.1687 67.1778 50.7992 67.1605 50.4126 67.1925C50.1411 67.1231 49.9521 67.0823 49.8456 67.07C50.4714 66.3658 50.8899 65.6114 51.101 64.8067C51.3122 64.002 51.2218 63.1974 50.8296 62.3928C50.7037 62.1344 50.5556 61.8868 50.3853 61.6499C49.4713 60.4684 48.276 59.9384 46.7995 60.0599C45.5487 59.7255 44.0689 59.9718 42.3602 60.7986ZM42.6102 64.6598C42.9341 65.9809 43.2064 66.9804 43.427 67.6582C43.6897 67.5219 43.9671 67.3877 44.2591 67.2555C44.5586 67.1197 44.8456 66.9489 45.1201 66.7431C45.3946 66.5373 45.6305 66.3273 45.8278 66.1132C46.0326 65.8956 46.1678 65.6385 46.2336 65.3421C46.2958 65.0383 46.2699 64.7225 46.1558 64.3945C46.0129 64.0075 45.7931 63.7535 45.4965 63.6325C45.2072 63.5079 44.9002 63.4969 44.5753 63.5994C44.2542 63.6909 43.9439 63.8137 43.6442 63.9678C43.3445 64.122 43.0963 64.2786 42.8996 64.4376L42.6102 64.6598ZM46.3416 73.5825C46.4413 73.5433 46.5762 73.4918 46.7461 73.4278C46.9198 73.3528 47.2121 73.2023 47.6229 72.9761C48.0376 72.739 48.3823 72.4991 48.6572 72.2566C48.9395 72.0106 49.1508 71.7031 49.2909 71.3342C49.4349 70.9543 49.4115 70.578 49.2206 70.2051C49.0513 69.8765 48.7927 69.6458 48.4446 69.5132C48.0966 69.3806 47.7459 69.3268 47.3925 69.3519C47.039 69.3769 46.6427 69.4547 46.2035 69.5851C45.7681 69.7046 45.4247 69.816 45.1734 69.9194C44.9221 70.0227 44.6744 70.1335 44.4303 70.2516C44.9082 71.2884 45.5453 72.3987 46.3416 73.5825ZM47.1398 67.7362C47.4687 67.6044 47.8065 67.5003 48.1531 67.4238C48.5036 67.3363 48.905 67.2971 49.3574 67.3063C49.8062 67.308 50.2211 67.3809 50.6021 67.525C50.9905 67.6655 51.3628 67.9323 51.719 68.3256C52.0716 68.7114 52.3475 69.2119 52.5467 69.8271C52.728 70.4053 52.7806 70.9729 52.7045 71.5297C52.6323 72.0755 52.4576 72.5705 52.1805 73.0148C51.8998 73.4517 51.5475 73.8731 51.1237 74.2789C50.7072 74.6811 50.2453 75.0369 49.7379 75.3463C49.2305 75.6557 48.7123 75.943 48.1833 76.2081C47.6617 76.4696 47.1534 76.6928 46.6584 76.8775C46.1708 77.0588 45.735 77.2149 45.351 77.346C44.9708 77.4662 44.6681 77.5579 44.443 77.6212L44.0888 77.7105C43.4349 76.6312 42.8166 75.4844 42.234 74.2702C41.6552 73.045 41.1224 71.8204 40.6355 70.5964C40.1525 69.3614 39.7361 68.2537 39.3864 67.2735C39.0405 66.2823 38.7716 65.4773 38.5797 64.8586L38.2866 63.9194C38.3498 63.8615 38.4315 63.7854 38.5319 63.6912C38.6397 63.5935 38.8643 63.4072 39.2057 63.1325C39.5472 62.8578 39.8922 62.5996 40.2406 62.358C40.5929 62.1055 41.0226 61.8336 41.5298 61.5426C42.0334 61.2441 42.5199 60.995 42.9894 60.7953C43.4552 60.5881 43.9609 60.4254 44.5067 60.3073C45.0563 60.1782 45.5699 60.1349 46.0477 60.1774C46.5219 60.2125 46.993 60.3539 47.4612 60.6018C47.9368 60.846 48.354 61.2052 48.713 61.6792C49.1228 62.2198 49.3685 62.7897 49.4502 63.3887C49.5283 63.9804 49.4595 64.5428 49.244 65.0759C49.0322 65.598 48.7473 66.0826 48.3892 66.5295C48.0311 66.9765 47.6147 67.3787 47.1398 67.7362Z" fill="black"/>
<path d="M61.1248 62.708C60.9356 61.8031 60.658 61.0258 60.2921 60.3759C59.9978 59.8669 59.6527 59.4949 59.2569 59.2598C58.991 59.3193 58.7132 59.4085 58.4233 59.5274C58.0471 59.6998 57.7584 59.9692 57.5573 60.3355C57.3537 60.694 57.238 61.0975 57.2104 61.5461C57.1906 61.9921 57.2138 62.4373 57.2798 62.8817C57.3512 63.3157 57.4616 63.7501 57.611 64.1849C57.8367 64.8022 58.0711 65.3261 58.3142 65.7568C58.6313 66.3361 58.976 66.747 59.3483 66.9896L59.5831 66.9142C59.9093 66.8009 60.1838 66.6611 60.4065 66.4948C60.6266 66.3207 60.8213 66.0814 60.9907 65.7771C61.16 65.4727 61.2562 65.0625 61.2792 64.5464C61.3023 64.0304 61.2508 63.4176 61.1248 62.708ZM66.929 60.8192C67.1701 61.4573 67.35 62.1065 67.4687 62.7667C67.5873 63.427 67.6264 64.1214 67.5857 64.85C67.5504 65.5683 67.4231 66.2428 67.2039 66.8735C66.9846 67.5043 66.6265 68.1063 66.1295 68.6797C65.6325 69.253 65.0155 69.7226 64.2785 70.0885L64.302 70.081C63.7087 70.3835 63.1342 70.6239 62.5784 70.8023C60.786 71.3776 59.1674 71.4359 57.7229 70.977C55.4092 70.823 53.6573 69.7085 52.4672 67.6334C51.9456 66.6628 51.5804 65.6679 51.3714 64.6487C51.1604 63.5698 51.0905 62.5663 51.1617 61.6383C51.2303 60.7024 51.4029 59.9012 51.6797 59.2348C51.954 58.5605 52.3187 57.9521 52.7738 57.4094C53.2367 56.8642 53.7117 56.423 54.1987 56.0856C54.6935 55.7458 55.2268 55.4582 55.7987 55.2229C57.1763 54.7807 58.6084 54.7737 60.0949 55.2018C61.2906 55.2922 62.4187 55.6543 63.4793 56.2881C64.5477 56.9194 65.4274 57.8354 66.1185 59.0361C66.4819 59.6781 66.752 60.2725 66.929 60.8192ZM61.3589 62.7104C61.4975 63.4591 61.5552 64.1044 61.5319 64.6464C61.5139 65.1781 61.415 65.6064 61.235 65.9314C61.0604 66.2461 60.8552 66.493 60.6194 66.6721C60.3836 66.8513 60.0909 67.0013 59.7412 67.1221C58.9165 67.4041 58.1671 67.2911 57.493 66.7833C56.8241 66.2652 56.2517 65.3109 55.7757 63.9205C55.6212 63.4701 55.5084 63.0148 55.4373 62.5549C55.3662 62.0949 55.3419 61.6329 55.3645 61.1687C55.3923 60.6942 55.5173 60.2661 55.7394 59.8845C55.9615 59.5028 56.2789 59.2156 56.6917 59.0227C57.8387 58.4822 58.8265 58.5574 59.655 59.2484C60.481 59.9316 61.049 61.0856 61.3589 62.7104ZM65.0937 60.5547C64.7466 59.5626 64.293 58.6952 63.7329 57.9525C63.1703 57.202 62.567 56.6197 61.9232 56.2056C61.2872 55.789 60.6138 55.4836 59.9028 55.2893C59.1972 55.0847 58.51 55.0036 57.841 55.0459C57.1799 55.0856 56.5531 55.2179 55.9605 55.4425C55.3758 55.6647 54.84 55.9315 54.3532 56.2429C53.8718 56.544 53.4036 56.9529 52.9488 57.4696C52.4939 57.9863 52.1334 58.5676 51.8672 59.2134C51.601 59.8592 51.4376 60.6488 51.3768 61.5822C51.316 62.5155 51.4001 63.536 51.629 64.6436C51.9303 66.0815 52.4354 67.2816 53.1443 68.2438C53.8585 69.1956 54.7028 69.8687 55.6772 70.2629C56.649 70.6493 57.722 70.7876 58.8962 70.678C60.0782 70.5659 61.2951 70.2012 62.5469 69.5839C63.2526 69.228 63.8447 68.775 64.3233 68.2249C64.8019 67.6747 65.1442 67.0906 65.3503 66.4727C65.5564 65.8548 65.6757 65.1958 65.7083 64.4956C65.7487 63.793 65.7121 63.1193 65.5985 62.4747C65.4902 61.8198 65.3219 61.1798 65.0937 60.5547Z" fill="black"/>
<path d="M74.8332 58.3247C74.695 57.4108 74.4615 56.6192 74.1326 55.95C73.8672 55.4254 73.5435 55.0348 73.1615 54.778C72.8926 54.8226 72.6102 54.8961 72.3141 54.9987C71.9288 55.1499 71.6255 55.4027 71.4041 55.7572C71.1806 56.1037 71.0425 56.5002 70.9898 56.9464C70.9451 57.3906 70.9432 57.8364 70.9843 58.2837C71.0312 58.721 71.117 59.1609 71.2418 59.6033C71.4326 60.2322 71.6373 60.7683 71.8558 61.2118C72.14 61.8078 72.4612 62.2373 72.8193 62.5003L73.058 62.4382C73.3901 62.3432 73.672 62.2189 73.9036 62.0653C74.1332 61.9038 74.341 61.6758 74.5272 61.3814C74.7133 61.0869 74.8324 60.6828 74.8843 60.1688C74.9363 59.6549 74.9192 59.0402 74.8332 58.3247ZM80.7346 56.7627C80.9396 57.4133 81.0828 58.0715 81.1643 58.7373C81.2457 59.403 81.2458 60.0985 81.1643 60.8237C81.0888 61.5388 80.9238 62.2051 80.6696 62.8226C80.4153 63.4401 80.024 64.0212 79.4956 64.5659C78.9672 65.1106 78.3248 65.545 77.5684 65.8691L77.5922 65.8629C76.9829 66.1318 76.3957 66.3399 75.8308 66.4869C74.0088 66.9613 72.3894 66.9292 70.9727 66.3906C68.6712 66.1078 66.9844 64.8974 65.9124 62.7593C65.4461 61.7612 65.1371 60.7475 64.9856 59.7183C64.8355 58.6294 64.8219 57.6237 64.945 56.7011C65.0659 55.7706 65.2833 54.9803 65.597 54.3304C65.9087 53.6725 66.3069 53.0854 66.7918 52.569C67.2846 52.0506 67.7836 51.6365 68.2887 51.3269C68.8019 51.0152 69.3505 50.7578 69.9348 50.5548C71.3351 50.1902 72.7654 50.2631 74.2257 50.7734C75.4145 50.9303 76.5207 51.3547 77.5441 52.0467C78.5755 52.7365 79.4026 53.7001 80.0253 54.9373C80.3521 55.5986 80.5885 56.2071 80.7346 56.7627ZM75.0668 58.3402C75.1633 59.0954 75.1847 59.7429 75.131 60.2827C75.0833 60.8125 74.9604 61.2346 74.7625 61.5491C74.5705 61.8535 74.3518 62.0886 74.1063 62.2543C73.8608 62.42 73.5601 62.5534 73.2041 62.6545C72.3649 62.89 71.623 62.7355 70.9783 62.1909C70.3395 61.6363 69.8214 60.6517 69.4241 59.237C69.2951 58.7786 69.208 58.3179 69.1628 57.8547C69.1176 57.3915 69.1193 56.9288 69.1678 56.4667C69.2222 55.9945 69.371 55.5741 69.6142 55.2055C69.8573 54.8368 70.1904 54.5678 70.6134 54.3983C71.789 53.9225 72.7711 54.0527 73.5596 54.7889C74.346 55.517 74.8484 56.7008 75.0668 58.3402ZM78.9168 56.3964C78.6259 55.3865 78.2217 54.4952 77.704 53.7225C77.1843 52.9418 76.6146 52.3268 75.995 51.8775C75.3833 51.4261 74.728 51.0836 74.029 50.85C73.3359 50.6064 72.6542 50.4871 71.984 50.492C71.3216 50.4948 70.6883 50.5918 70.084 50.7831C69.4877 50.9723 68.9378 51.2088 68.4343 51.4925C67.9367 51.7663 67.4463 52.1484 66.9631 52.6389C66.48 53.1294 66.0874 53.6896 65.7854 54.3195C65.4834 54.9494 65.2759 55.7286 65.1629 56.6571C65.0499 57.5855 65.0766 58.609 65.2431 59.7276C65.4633 61.18 65.9004 62.4062 66.5543 63.4064C67.2141 64.3965 68.0193 65.1156 68.9702 65.5635C69.9189 66.0034 70.9825 66.2015 72.1611 66.1575C73.3476 66.1115 74.5832 65.8152 75.8677 65.2687C76.5922 64.9529 77.2089 64.5336 77.7176 64.011C78.2263 63.4884 78.6009 62.9244 78.8413 62.319C79.0817 61.7136 79.2378 61.0623 79.3096 60.3651C79.3894 59.6659 79.3906 58.9913 79.3133 58.3414C79.2419 57.6815 79.1097 57.0331 78.9168 56.3964Z" fill="black"/>
<path d="M45.4 42.7301C41.8687 41.5357 32.0316 43.8778 29.9116 47.217C28.1638 49.9425 28.8414 53.7747 32.3455 55.1641C34.9912 56.2133 37.186 54.8903 37.3717 54.701C37.3678 54.6863 37.3825 54.6825 37.3972 54.6787C37.4157 54.6895 37.4304 54.6857 37.449 54.6965C37.6594 55.3777 37.8274 55.8976 37.9517 56.1315C39.4346 59.2059 42.8685 58.6563 43.7596 57.0307C43.5129 55.4351 43.0167 53.607 42.9474 53.3432C42.9474 53.3432 42.9435 53.3285 42.9543 53.3101C42.969 53.3062 42.9946 53.2839 43.0092 53.2801C43.0092 53.2801 43.0239 53.2763 43.0386 53.2725C43.2828 53.3655 46.0964 53.3219 47.9016 51.1137C50.2732 48.1944 48.6168 43.8029 45.4 42.7301ZM36.2079 50.8702C35.8406 50.9658 35.4626 51.0799 35.0946 51.1131C34.6308 51.1399 34.3296 50.8895 34.1832 50.3326C34.0253 49.7317 34.8215 48.8198 35.9412 49.1389C35.999 49.3587 36.049 49.5492 36.0953 49.7251C36.1615 50.0367 36.2462 50.3591 36.3271 50.6669C36.3278 50.7293 36.2666 50.8549 36.2079 50.8702ZM43.5116 48.9215C43.1598 49.0757 42.7887 49.1567 42.4215 49.2523C42.3627 49.2676 42.2291 49.1772 42.199 49.1224C42.068 48.6241 41.9602 48.2137 41.8022 47.6128C42.6068 46.7927 43.7497 47.1997 43.9076 47.8006C44.054 48.3575 43.9292 48.7188 43.5116 48.9215Z" stroke="black" stroke-width="0.594393" mask="url(#path-3-outside-1_2419_893)"/>
<path d="M61.3603 46.5991C63.7242 43.6505 61.8841 38.978 59.1363 38.018C55.6637 36.8082 49.7183 39.3271 48.7639 40.8909C48.7599 42.7866 50.8293 50.4215 51.4219 51.6609C52.924 54.8085 56.358 54.2589 57.2413 52.604C56.9908 50.9938 56.4831 49.1217 56.4137 48.8579C56.4099 48.8432 56.406 48.8286 56.4207 48.8248C56.4354 48.8209 56.4609 48.7986 56.4756 48.7948C56.4864 48.7763 56.4864 48.7763 56.505 48.7872C56.76 48.8617 59.5666 48.8512 61.3603 46.5991ZM57.347 43.2127C57.4972 43.7843 57.3725 44.1456 56.9549 44.3483C56.6031 44.5025 56.232 44.5835 55.8647 44.6791C55.806 44.6944 55.6762 44.6186 55.6569 44.5453C55.5113 44.0508 55.3996 43.6258 55.2378 43.0103C56.0571 42.1863 57.1852 42.5972 57.347 43.2127Z" stroke="black" stroke-width="0.594393" mask="url(#path-3-outside-1_2419_893)"/>
<path d="M68.541 38.0163C68.4969 38.0278 68.4528 38.0392 68.4088 38.0507C68.3115 37.9195 68.1995 37.792 68.1061 37.6754C67.1694 36.6197 66.5263 35.785 65.5239 34.7776C64.2944 33.5632 61.1793 34.6092 60.731 37.2626C62.5508 39.529 64.2655 40.9772 66.1738 42.9231C66.3452 43.0977 66.5653 43.3379 66.5164 43.5698C66.348 44.3026 66.3769 43.935 65.8947 45.5637C64.9862 48.5562 68.0924 50.5816 70.871 48.1357C71.6694 46.4559 74.2589 37.4983 74.6966 35.521C75.3477 32.5643 71.9592 31.6145 69.7885 32.7904C69.412 33.687 68.6706 37.4345 68.541 38.0163Z" stroke="black" stroke-width="0.594393" mask="url(#path-3-outside-1_2419_893)"/>
<path d="M86.8119 30.0996C85.1412 30.5503 78.9632 32.0649 77.1432 32.6641C74.3946 33.552 75.071 36.9617 76.3231 37.904C77.3242 37.8313 78.4073 37.5336 79.3614 37.2225C80.0446 39.9415 80.9903 43.0618 81.349 43.8296C82.8621 46.9588 86.2061 46.6049 87.0895 44.9499C86.8525 42.9134 85.7913 38.3982 84.9875 35.7577C85.0462 35.7424 85.4057 35.6174 85.9122 35.4543C89.1672 34.4032 87.8524 30.8935 86.8119 30.0996Z" stroke="black" stroke-width="0.594393" mask="url(#path-3-outside-1_2419_893)"/>
<path d="M95.0741 27.9957C91.0384 29.0621 89.6625 31.7691 89.2801 34.0765C88.9865 35.7658 89.439 37.9654 90.3766 39.7413C91.3597 41.6305 92.8442 42.9195 94.9601 43.3863C97.1796 43.8889 99.2931 43.5108 101.274 42.4471C103.727 41.1508 105.021 39.0912 105.144 36.3346C105.224 34.247 104.561 32.3839 103.378 30.6877C102.633 29.6447 100.075 26.6621 95.0741 27.9957ZM96.5265 33.2233C97.5695 32.9517 98.7599 33.6595 99.0924 35.3424C99.4395 37.0214 98.6426 37.8709 97.8756 38.1176C97.1272 38.3751 95.8382 38.0687 95.2886 36.3954C94.7127 34.682 95.4395 33.5063 96.5265 33.2233Z" stroke="black" stroke-width="0.594393" mask="url(#path-3-outside-1_2419_893)"/>
<path d="M107.041 61.4276C106.842 61.9174 106.48 62.3667 105.958 62.7754C105.443 63.1921 104.874 63.4092 104.249 63.4268C103.978 63.4345 103.705 63.4011 103.431 63.3267C102.917 63.1771 102.482 62.9349 102.126 62.6002C101.503 62.4044 101.008 62.09 100.642 61.6571C100.283 61.2158 100.095 60.7082 100.079 60.1341C100.069 59.7979 100.132 59.4268 100.268 59.0208C100.488 58.4072 100.857 57.9167 101.372 57.5492C101.888 57.1736 102.446 56.9773 103.046 56.9604C103.523 56.9469 104.02 57.0642 104.538 57.3123C104.823 57.493 105.033 57.6553 105.169 57.7993C105.443 57.8818 105.663 57.9618 105.83 58.0392C106.282 58.2973 106.626 58.6364 106.86 59.0566C107.094 59.4686 107.218 59.8878 107.23 60.3142C107.244 60.7735 107.181 61.1446 107.041 61.4276ZM105.862 56.5978L102.405 57.003C102.366 56.7825 102.333 56.4962 102.306 56.144L101.125 56.2758C100.645 52.0132 100.369 48.6272 100.295 46.1178C100.267 45.1911 100.277 44.4152 100.325 43.7901C100.768 43.7612 101.2 43.7408 101.619 43.729C103.337 43.6806 104.74 43.8011 105.826 44.0906C105.772 44.207 105.723 44.3685 105.68 44.5749C106.3 44.6559 106.775 44.7369 107.107 44.8178C107.069 44.9338 107.016 45.1076 106.949 45.3393C106.89 45.5626 106.781 46.0622 106.623 46.8382C106.473 47.6057 106.34 48.4138 106.226 49.2624C106.119 50.1108 106.024 51.201 105.939 52.5329C105.864 53.8647 105.838 55.2197 105.862 56.5978ZM101.339 55.9989L104.316 55.6565C104.293 54.3275 104.317 53.0301 104.386 51.7642C104.464 50.4898 104.564 49.4241 104.687 48.5671C104.809 47.7018 104.931 46.9351 105.051 46.2669C105.179 45.5903 105.288 45.0907 105.377 44.7681L105.523 44.2838C105.009 44.1424 104.34 44.0504 103.516 44.008C102.691 43.9655 101.996 43.9605 101.429 43.9929L100.567 44.0418C100.511 45.2089 100.537 46.6773 100.647 48.447C100.765 50.2165 100.91 51.9155 101.081 53.5439L101.339 55.9989ZM105.524 60.6208C105.648 60.3547 105.713 60.0492 105.719 59.7043C105.725 59.3512 105.623 58.9642 105.413 58.5434C105.203 58.1225 104.873 57.7912 104.421 57.5495C103.685 57.1352 102.918 57.0871 102.121 57.405C101.324 57.7147 100.785 58.2757 100.504 59.088C100.246 59.8257 100.27 60.4939 100.576 61.0927C100.89 61.6912 101.437 62.1108 102.218 62.3514C102.915 62.5616 103.579 62.4649 104.209 62.0614C104.847 61.6577 105.285 61.1775 105.524 60.6208Z" stroke="black" stroke-width="0.594393" mask="url(#path-3-outside-1_2419_893)"/>
<path d="M85.9317 64.5881L80.903 64.6958L80.9788 64.0556L79.5673 64.0907L81.8882 48.657L86.2155 48.1699L86.5214 48.891L87.5511 48.7751L90.0587 54.6361L92.7259 47.338L97.0303 47.4108C97.0527 47.6065 97.0837 47.8053 97.1233 48.0073L98.3782 48.0146C98.5491 49.0028 98.7703 50.2495 99.0417 51.7547C99.3203 53.251 99.7566 55.4024 100.351 58.209C100.945 61.0156 101.39 62.7367 101.686 63.3721L95.6768 64.2467C95.6545 64.051 95.6324 63.7852 95.6105 63.4491L94.3412 63.6415C94.2504 62.7022 94.1747 61.6785 94.1143 60.5706L93.4251 63.0139C91.3458 63.2892 89.8579 63.597 88.9615 63.9374L88.6237 63.0465C88.1644 63.156 87.8277 63.2517 87.6135 63.3336L86.2444 59.611C86.0683 62.4878 85.9641 64.1468 85.9317 64.5881ZM79.8595 63.8224L84.3555 63.7251L84.9178 55.0662L87.7747 63.0058C88.1241 62.8757 88.6387 62.7434 89.3187 62.6091C90.0059 62.4657 90.606 62.3568 91.119 62.2826L91.8762 62.1726L94.2569 53.7796C94.2231 54.3532 94.2204 55.4517 94.2487 57.0751C94.2851 58.6977 94.3298 60.1748 94.3827 61.5065L94.4498 63.5054L99.9925 62.5719C99.7183 61.9835 99.3152 60.4476 98.783 57.9643C98.2508 55.481 97.789 53.1426 97.3975 50.949L96.8103 47.6585L92.916 47.5891L89.5496 56.6999L86.0364 48.4501L82.1259 48.8903L79.8595 63.8224Z" stroke="black" stroke-width="0.594393" mask="url(#path-3-outside-1_2419_893)"/>
<path d="M45.9231 64.4798C46.1647 65.2569 45.7834 65.9751 44.7792 66.6344C44.751 66.5203 44.6912 66.2664 44.5999 65.8727C44.5086 65.479 44.4294 65.157 44.3623 64.9067C44.7629 64.6033 45.1186 64.3765 45.4292 64.2261C45.5254 64.1796 45.5993 64.153 45.6508 64.1463C45.782 64.2653 45.8727 64.3764 45.9231 64.4798ZM48.9876 70.3178C49.1137 70.5578 49.1552 70.8023 49.112 71.0513C49.0762 71.2967 48.9688 71.5266 48.7898 71.7409C48.6109 71.9552 48.4157 72.1455 48.2041 72.3117C47.9964 72.4669 47.7611 72.6219 47.4982 72.7764C47.0427 72.0481 46.6225 71.289 46.2376 70.4991C46.9773 70.1412 47.7064 69.9024 48.4251 69.7826C48.6412 69.8697 48.8287 70.0481 48.9876 70.3178ZM42.3602 60.7986C41.6575 61.1387 40.941 61.563 40.2107 62.0715C39.4878 62.5764 38.9387 62.9972 38.5634 63.3339L38.0005 63.8389C38.1354 64.2845 38.322 64.883 38.5602 65.6344C38.8022 66.3748 39.2896 67.7126 40.0224 69.6478C40.7553 71.583 41.4832 73.2925 42.2063 74.7762C42.7604 75.913 43.3464 76.9842 43.9644 77.9897C44.2816 77.9091 44.6729 77.7928 45.1381 77.6407C45.174 77.7145 45.2735 77.8716 45.4364 78.1121C46.9081 77.7557 48.3319 77.2446 49.7078 76.5788C50.1886 76.3461 50.6364 76.102 51.0512 75.8466C51.4735 75.5875 51.8924 75.2935 52.308 74.9647C52.7273 74.6432 53.0843 74.2971 53.379 73.9264C53.6847 73.5596 53.9373 73.1682 54.1368 72.7523C54.3328 72.3291 54.4445 71.8736 54.4719 71.386C54.4958 70.8909 54.4241 70.3874 54.2568 69.8753C54.079 69.3228 53.8431 68.8576 53.5493 68.4798C53.2593 68.091 52.9369 67.8046 52.582 67.6205C52.2272 67.4364 51.8736 67.3111 51.5212 67.2444C51.1687 67.1778 50.7992 67.1605 50.4126 67.1925C50.1411 67.1231 49.9521 67.0823 49.8456 67.07C50.4714 66.3658 50.8899 65.6114 51.101 64.8067C51.3122 64.002 51.2218 63.1974 50.8296 62.3928C50.7037 62.1344 50.5556 61.8868 50.3853 61.6499C49.4713 60.4684 48.276 59.9384 46.7995 60.0599C45.5487 59.7255 44.0689 59.9718 42.3602 60.7986ZM42.6102 64.6598C42.9341 65.9809 43.2064 66.9804 43.427 67.6582C43.6897 67.5219 43.9671 67.3877 44.2591 67.2555C44.5586 67.1197 44.8456 66.9489 45.1201 66.7431C45.3946 66.5373 45.6305 66.3273 45.8278 66.1132C46.0326 65.8956 46.1678 65.6385 46.2336 65.3421C46.2958 65.0383 46.2699 64.7225 46.1558 64.3945C46.0129 64.0075 45.7931 63.7535 45.4965 63.6325C45.2072 63.5079 44.9002 63.4969 44.5753 63.5994C44.2542 63.6909 43.9439 63.8137 43.6442 63.9678C43.3445 64.122 43.0963 64.2786 42.8996 64.4376L42.6102 64.6598ZM46.3416 73.5825C46.4413 73.5433 46.5762 73.4918 46.7461 73.4278C46.9198 73.3528 47.2121 73.2023 47.6229 72.9761C48.0376 72.739 48.3823 72.4991 48.6572 72.2566C48.9395 72.0106 49.1508 71.7031 49.2909 71.3342C49.4349 70.9543 49.4115 70.578 49.2206 70.2051C49.0513 69.8765 48.7927 69.6458 48.4446 69.5132C48.0966 69.3806 47.7459 69.3268 47.3925 69.3519C47.039 69.3769 46.6427 69.4547 46.2035 69.5851C45.7681 69.7046 45.4247 69.816 45.1734 69.9194C44.9221 70.0227 44.6744 70.1335 44.4303 70.2516C44.9082 71.2884 45.5453 72.3987 46.3416 73.5825ZM47.1398 67.7362C47.4687 67.6044 47.8065 67.5003 48.1531 67.4238C48.5036 67.3363 48.905 67.2971 49.3574 67.3063C49.8062 67.308 50.2211 67.3809 50.6021 67.525C50.9905 67.6655 51.3628 67.9323 51.719 68.3256C52.0716 68.7114 52.3475 69.2119 52.5467 69.8271C52.728 70.4053 52.7806 70.9729 52.7045 71.5297C52.6323 72.0755 52.4576 72.5705 52.1805 73.0148C51.8998 73.4517 51.5475 73.8731 51.1237 74.2789C50.7072 74.6811 50.2453 75.0369 49.7379 75.3463C49.2305 75.6557 48.7123 75.943 48.1833 76.2081C47.6617 76.4696 47.1534 76.6928 46.6584 76.8775C46.1708 77.0588 45.735 77.2149 45.351 77.346C44.9708 77.4662 44.6681 77.5579 44.443 77.6212L44.0888 77.7105C43.4349 76.6312 42.8166 75.4844 42.234 74.2702C41.6552 73.045 41.1224 71.8204 40.6355 70.5964C40.1525 69.3614 39.7361 68.2537 39.3864 67.2735C39.0405 66.2823 38.7716 65.4773 38.5797 64.8586L38.2866 63.9194C38.3498 63.8615 38.4315 63.7854 38.5319 63.6912C38.6397 63.5935 38.8643 63.4072 39.2057 63.1325C39.5472 62.8578 39.8922 62.5996 40.2406 62.358C40.5929 62.1055 41.0226 61.8336 41.5298 61.5426C42.0334 61.2441 42.5199 60.995 42.9894 60.7953C43.4552 60.5881 43.9609 60.4254 44.5067 60.3073C45.0563 60.1782 45.5699 60.1349 46.0477 60.1774C46.5219 60.2125 46.993 60.3539 47.4612 60.6018C47.9368 60.846 48.354 61.2052 48.713 61.6792C49.1228 62.2198 49.3685 62.7897 49.4502 63.3887C49.5283 63.9804 49.4595 64.5428 49.244 65.0759C49.0322 65.598 48.7473 66.0826 48.3892 66.5295C48.0311 66.9765 47.6147 67.3787 47.1398 67.7362Z" stroke="black" stroke-width="0.594393" mask="url(#path-3-outside-1_2419_893)"/>
<path d="M61.1248 62.708C60.9356 61.8031 60.658 61.0258 60.2921 60.3759C59.9978 59.8669 59.6527 59.4949 59.2569 59.2598C58.991 59.3193 58.7132 59.4085 58.4233 59.5274C58.0471 59.6998 57.7584 59.9692 57.5573 60.3355C57.3537 60.694 57.238 61.0975 57.2104 61.5461C57.1906 61.9921 57.2138 62.4373 57.2798 62.8817C57.3512 63.3157 57.4616 63.7501 57.611 64.1849C57.8367 64.8022 58.0711 65.3261 58.3142 65.7568C58.6313 66.3361 58.976 66.747 59.3483 66.9896L59.5831 66.9142C59.9093 66.8009 60.1838 66.6611 60.4065 66.4948C60.6266 66.3207 60.8213 66.0814 60.9907 65.7771C61.16 65.4727 61.2562 65.0625 61.2792 64.5464C61.3023 64.0304 61.2508 63.4176 61.1248 62.708ZM66.929 60.8192C67.1701 61.4573 67.35 62.1065 67.4687 62.7667C67.5873 63.427 67.6264 64.1214 67.5857 64.85C67.5504 65.5683 67.4231 66.2428 67.2039 66.8735C66.9846 67.5043 66.6265 68.1063 66.1295 68.6797C65.6325 69.253 65.0155 69.7226 64.2785 70.0885L64.302 70.081C63.7087 70.3835 63.1342 70.6239 62.5784 70.8023C60.786 71.3776 59.1674 71.4359 57.7229 70.977C55.4092 70.823 53.6573 69.7085 52.4672 67.6334C51.9456 66.6628 51.5804 65.6679 51.3714 64.6487C51.1604 63.5698 51.0905 62.5663 51.1617 61.6383C51.2303 60.7024 51.4029 59.9012 51.6797 59.2348C51.954 58.5605 52.3187 57.9521 52.7738 57.4094C53.2367 56.8642 53.7117 56.423 54.1987 56.0856C54.6935 55.7458 55.2268 55.4582 55.7987 55.2229C57.1763 54.7807 58.6084 54.7737 60.0949 55.2018C61.2906 55.2922 62.4187 55.6543 63.4793 56.2881C64.5477 56.9194 65.4274 57.8354 66.1185 59.0361C66.4819 59.6781 66.752 60.2725 66.929 60.8192ZM61.3589 62.7104C61.4975 63.4591 61.5552 64.1044 61.5319 64.6464C61.5139 65.1781 61.415 65.6064 61.235 65.9314C61.0604 66.2461 60.8552 66.493 60.6194 66.6721C60.3836 66.8513 60.0909 67.0013 59.7412 67.1221C58.9165 67.4041 58.1671 67.2911 57.493 66.7833C56.8241 66.2652 56.2517 65.3109 55.7757 63.9205C55.6212 63.4701 55.5084 63.0148 55.4373 62.5549C55.3662 62.0949 55.3419 61.6329 55.3645 61.1687C55.3923 60.6942 55.5173 60.2661 55.7394 59.8845C55.9615 59.5028 56.2789 59.2156 56.6917 59.0227C57.8387 58.4822 58.8265 58.5574 59.655 59.2484C60.481 59.9316 61.049 61.0856 61.3589 62.7104ZM65.0937 60.5547C64.7466 59.5626 64.293 58.6952 63.7329 57.9525C63.1703 57.202 62.567 56.6197 61.9232 56.2056C61.2872 55.789 60.6138 55.4836 59.9028 55.2893C59.1972 55.0847 58.51 55.0036 57.841 55.0459C57.1799 55.0856 56.5531 55.2179 55.9605 55.4425C55.3758 55.6647 54.84 55.9315 54.3532 56.2429C53.8718 56.544 53.4036 56.9529 52.9488 57.4696C52.4939 57.9863 52.1334 58.5676 51.8672 59.2134C51.601 59.8592 51.4376 60.6488 51.3768 61.5822C51.316 62.5155 51.4001 63.536 51.629 64.6436C51.9303 66.0815 52.4354 67.2816 53.1443 68.2438C53.8585 69.1956 54.7028 69.8687 55.6772 70.2629C56.649 70.6493 57.722 70.7876 58.8962 70.678C60.0782 70.5659 61.2951 70.2012 62.5469 69.5839C63.2526 69.228 63.8447 68.775 64.3233 68.2249C64.8019 67.6747 65.1442 67.0906 65.3503 66.4727C65.5564 65.8548 65.6757 65.1958 65.7083 64.4956C65.7487 63.793 65.7121 63.1193 65.5985 62.4747C65.4902 61.8198 65.3219 61.1798 65.0937 60.5547Z" stroke="black" stroke-width="0.594393" mask="url(#path-3-outside-1_2419_893)"/>
<path d="M74.8332 58.3247C74.695 57.4108 74.4615 56.6192 74.1326 55.95C73.8672 55.4254 73.5435 55.0348 73.1615 54.778C72.8926 54.8226 72.6102 54.8961 72.3141 54.9987C71.9288 55.1499 71.6255 55.4027 71.4041 55.7572C71.1806 56.1037 71.0425 56.5002 70.9898 56.9464C70.9451 57.3906 70.9432 57.8364 70.9843 58.2837C71.0312 58.721 71.117 59.1609 71.2418 59.6033C71.4326 60.2322 71.6373 60.7683 71.8558 61.2118C72.14 61.8078 72.4612 62.2373 72.8193 62.5003L73.058 62.4382C73.3901 62.3432 73.672 62.2189 73.9036 62.0653C74.1332 61.9038 74.341 61.6758 74.5272 61.3814C74.7133 61.0869 74.8324 60.6828 74.8843 60.1688C74.9363 59.6549 74.9192 59.0402 74.8332 58.3247ZM80.7346 56.7627C80.9396 57.4133 81.0828 58.0715 81.1643 58.7373C81.2457 59.403 81.2458 60.0985 81.1643 60.8237C81.0888 61.5388 80.9238 62.2051 80.6696 62.8226C80.4153 63.4401 80.024 64.0212 79.4956 64.5659C78.9672 65.1106 78.3248 65.545 77.5684 65.8691L77.5922 65.8629C76.9829 66.1318 76.3957 66.3399 75.8308 66.4869C74.0088 66.9613 72.3894 66.9292 70.9727 66.3906C68.6712 66.1078 66.9844 64.8974 65.9124 62.7593C65.4461 61.7612 65.1371 60.7475 64.9856 59.7183C64.8355 58.6294 64.8219 57.6237 64.945 56.7011C65.0659 55.7706 65.2833 54.9803 65.597 54.3304C65.9087 53.6725 66.3069 53.0854 66.7918 52.569C67.2846 52.0506 67.7836 51.6365 68.2887 51.3269C68.8019 51.0152 69.3505 50.7578 69.9348 50.5548C71.3351 50.1902 72.7654 50.2631 74.2257 50.7734C75.4145 50.9303 76.5207 51.3547 77.5441 52.0467C78.5755 52.7365 79.4026 53.7001 80.0253 54.9373C80.3521 55.5986 80.5885 56.2071 80.7346 56.7627ZM75.0668 58.3402C75.1633 59.0954 75.1847 59.7429 75.131 60.2827C75.0833 60.8125 74.9604 61.2346 74.7625 61.5491C74.5705 61.8535 74.3518 62.0886 74.1063 62.2543C73.8608 62.42 73.5601 62.5534 73.2041 62.6545C72.3649 62.89 71.623 62.7355 70.9783 62.1909C70.3395 61.6363 69.8214 60.6517 69.4241 59.237C69.2951 58.7786 69.208 58.3179 69.1628 57.8547C69.1176 57.3915 69.1193 56.9288 69.1678 56.4667C69.2222 55.9945 69.371 55.5741 69.6142 55.2055C69.8573 54.8368 70.1904 54.5678 70.6134 54.3983C71.789 53.9225 72.7711 54.0527 73.5596 54.7889C74.346 55.517 74.8484 56.7008 75.0668 58.3402ZM78.9168 56.3964C78.6259 55.3865 78.2217 54.4952 77.704 53.7225C77.1843 52.9418 76.6146 52.3268 75.995 51.8775C75.3833 51.4261 74.728 51.0836 74.029 50.85C73.3359 50.6064 72.6542 50.4871 71.984 50.492C71.3216 50.4948 70.6883 50.5918 70.084 50.7831C69.4877 50.9723 68.9378 51.2088 68.4343 51.4925C67.9367 51.7663 67.4463 52.1484 66.9631 52.6389C66.48 53.1294 66.0874 53.6896 65.7854 54.3195C65.4834 54.9494 65.2759 55.7286 65.1629 56.6571C65.0499 57.5855 65.0766 58.609 65.2431 59.7276C65.4633 61.18 65.9004 62.4062 66.5543 63.4064C67.2141 64.3965 68.0193 65.1156 68.9702 65.5635C69.9189 66.0034 70.9825 66.2015 72.1611 66.1575C73.3476 66.1115 74.5832 65.8152 75.8677 65.2687C76.5922 64.9529 77.2089 64.5336 77.7176 64.011C78.2263 63.4884 78.6009 62.9244 78.8413 62.319C79.0817 61.7136 79.2378 61.0623 79.3096 60.3651C79.3894 59.6659 79.3906 58.9913 79.3133 58.3414C79.2419 57.6815 79.1097 57.0331 78.9168 56.3964Z" stroke="black" stroke-width="0.594393" mask="url(#path-3-outside-1_2419_893)"/>
</svg>
