<svg width="69" height="166" viewBox="0 0 69 166" fill="none" xmlns="http://www.w3.org/2000/svg">
<path d="M48.5 161.5L34.4368 154.288C31.0991 152.576 29 149.141 29 145.39V99.0873C29 94.9845 31.0961 91.1661 34.5575 88.9634L50.7056 78.6873C52.3937 77.6131 51.6328 75 49.6319 75H15.5V75C9.70101 75 5 70.299 5 64.5V19V14C5 9.02944 9.02944 5 14 5H65" stroke="url(#paint0_radial_2139_1531)" stroke-opacity="0.36"/>
<g filter="url(#filter0_d_2139_1531)">
<path d="M48.5 161.5L34.4368 154.288C31.0991 152.576 29 149.141 29 145.39V99.0873C29 94.9845 31.0961 91.1661 34.5575 88.9634L50.7056 78.6873C52.3937 77.6131 51.6328 75 49.6319 75H15.5V75C9.70101 75 5 70.299 5 64.5V19V14C5 9.02944 9.02944 5 14 5H65" stroke="url(#paint1_radial_2139_1531)" stroke-opacity="0.36" shape-rendering="crispEdges"/>
</g>
<defs>
<filter id="filter0_d_2139_1531" x="0.5" y="0.5" width="68.5" height="165.445" filterUnits="userSpaceOnUse" color-interpolation-filters="sRGB">
<feFlood flood-opacity="0" result="BackgroundImageFix"/>
<feColorMatrix in="SourceAlpha" type="matrix" values="0 0 0 0 0 0 0 0 0 0 0 0 0 0 0 0 0 0 127 0" result="hardAlpha"/>
<feOffset/>
<feGaussianBlur stdDeviation="2"/>
<feComposite in2="hardAlpha" operator="out"/>
<feColorMatrix type="matrix" values="0 0 0 0 1 0 0 0 0 1 0 0 0 0 1 0 0 0 0.4 0"/>
<feBlend mode="normal" in2="BackgroundImageFix" result="effect1_dropShadow_2139_1531"/>
<feBlend mode="normal" in="SourceGraphic" in2="effect1_dropShadow_2139_1531" result="shape"/>
</filter>
<radialGradient id="paint0_radial_2139_1531" cx="0" cy="0" r="1" gradientUnits="userSpaceOnUse" gradientTransform="translate(13.5 69.5) rotate(59.2112) scale(112.332 62.5776)">
<stop stop-color="white"/>
<stop offset="1" stop-color="white" stop-opacity="0"/>
</radialGradient>
<radialGradient id="paint1_radial_2139_1531" cx="0" cy="0" r="1" gradientUnits="userSpaceOnUse" gradientTransform="translate(9.5 83) rotate(62.1027) scale(38.4708 36.1335)">
<stop stop-color="white"/>
<stop offset="1" stop-color="white" stop-opacity="0"/>
</radialGradient>
</defs>
</svg>
