<svg width="244" height="124" viewBox="0 0 244 124" fill="none" xmlns="http://www.w3.org/2000/svg">
<path d="M28.1822 109.317H29.6983L33.763 116.623H25.8364L23.4368 113.001H22.0005L20.3771 110.254L10.0746 113.001L6.45312 106.695L11.3858 88.3377L9.26289 84.6537L15.5693 81.0322L19.1908 87.3386L14.2579 105.758L15.5067 107.881L21.5009 106.258L26.3089 88.4L24.1859 84.7162L30.4921 81.0947L34.1136 87.4009L28.182 109.317H28.1822ZM231.649 109.38L233.772 113.064L227.466 116.685L223.844 110.379L229.776 88.3377L227.653 84.6537L233.96 81.0322L237.502 87.3947C235.547 94.7254 233.609 102.041 231.649 109.38V109.38ZM211.024 94.685L221.505 91.9001L225.126 98.2065L221.068 113.379C215.313 113.379 209.558 113.379 203.802 113.379L200.181 107.073C202.572 98.0652 202.845 97.326 205.264 88.3373L203.141 84.6535L209.447 81.032L212.882 87.8378L211.024 94.685ZM206.906 109.695H214.449L217.259 99.2056L216.01 97.0827L210.016 98.7061L206.906 109.695ZM183.684 102.511L181.873 109.38L183.996 113.064L177.69 116.685L174.068 110.379L180 88.3377L177.877 84.6538L184.183 81.0324L186.181 84.4665L199.106 81.0324L202.728 87.3386L198.669 102.511H183.684ZM193.612 86.2146L187.618 87.838L184.683 98.8273H192.051L194.86 88.3375L193.612 86.2146H193.612ZM176.478 87.3062L169.547 113.031H152.438L148.817 106.725L155.685 81H172.794L176.478 87.3062ZM158.745 109.41H162.991L168.61 88.3678L166.487 84.6838H162.241L156.622 105.726L158.745 109.41ZM138.511 87.4011L132.642 109.38L134.765 113.064L128.458 116.685L124.837 110.379L130.769 88.3377L128.646 84.6538L134.952 81.0324L136.763 84.1544L148.439 81.0324L152.06 87.3386L145.754 90.96L143.007 86.2146L138.511 87.4011H138.511ZM101.061 94.4318L111.542 91.6469L115.164 97.9533L111.105 113.126H95.9332H95.1748H93.8402L90.2188 106.82C92.61 97.812 92.7956 97.4507 95.2147 88.4622L93.0918 84.7782L99.398 81.1567L102.832 87.9627L102.465 89.3169L101.062 94.4316L101.061 94.4318ZM96.9438 109.442H104.487L107.297 98.9524L106.048 96.8295L100.054 98.4529L99.9956 98.3169L96.9436 109.442H96.9438ZM72.9616 102.574L71.151 109.442L73.2739 113.126L66.9675 116.748L63.3462 110.441L69.2778 88.4002L67.1549 84.7164L73.4611 81.0949L75.4591 84.529L88.3842 81.0949L92.0056 87.4011L87.947 102.574H72.9616ZM82.8895 86.2771L76.8954 87.9005L73.9606 98.8899H81.3284L84.1382 88.4L82.8893 86.2771H82.8895ZM65.2324 87.4636L58.3015 113.188H50.7464L53.5562 102.636H46.1884L43.3786 113.188L37.0722 116.81L33.4507 110.504L37.0722 108.381L43.0663 86.0276L61.486 81.0949L65.2324 87.4636ZM54.6176 98.9524L57.4274 88.4625L56.1786 86.3396L50.1844 87.9631L47.2498 99.0147L54.6176 98.9524Z" fill="#EDA624"/>
<path d="M40.125 64V61.3926H40.5059C40.9486 61.334 41.3099 61.2135 41.5898 61.0312C41.8698 60.849 42.0846 60.569 42.2344 60.1914C42.3841 59.8073 42.485 59.2865 42.5371 58.6289C42.5892 57.9714 42.6087 57.1348 42.5957 56.1191L42.5273 52.1055L41.0527 51.793V49.7812H54.2754V51.793L52.8008 52.1055V61.6855L54.2754 61.998V64H47.9082V61.998L49.3828 61.6855V52.3984H45.9453L46.0234 56.1191C46.0365 57.5254 45.9355 58.7298 45.7207 59.7324C45.5124 60.7285 45.1934 61.5423 44.7637 62.1738C44.334 62.7988 43.8001 63.2611 43.1621 63.5605C42.5306 63.8535 41.7949 64 40.9551 64H40.125ZM62.0684 64.2051C61.0853 64.2051 60.1803 64.026 59.3535 63.668C58.5332 63.3034 57.8203 62.7956 57.2148 62.1445C56.6094 61.4935 56.1406 60.7318 55.8086 59.8594C55.4831 58.9805 55.3203 58.0267 55.3203 56.998V56.7734C55.3203 55.7513 55.4831 54.804 55.8086 53.9316C56.1406 53.0592 56.6061 52.2975 57.2051 51.6465C57.8105 50.9954 58.5234 50.4876 59.3438 50.123C60.1641 49.7585 61.0658 49.5762 62.0488 49.5762C63.0124 49.5762 63.9076 49.7585 64.7344 50.123C65.5612 50.4876 66.2839 50.9954 66.9023 51.6465C67.5273 52.2975 68.0124 53.0592 68.3574 53.9316C68.7025 54.804 68.875 55.7513 68.875 56.7734V56.998C68.875 58.0267 68.7025 58.9805 68.3574 59.8594C68.0124 60.7318 67.5306 61.4935 66.9121 62.1445C66.2936 62.7956 65.571 63.3034 64.7441 63.668C63.9173 64.026 63.0254 64.2051 62.0684 64.2051ZM62.0684 61.6074C62.7845 61.6074 63.3965 61.4154 63.9043 61.0312C64.4121 60.6471 64.7995 60.11 65.0664 59.4199C65.3333 58.7298 65.4668 57.9225 65.4668 56.998V56.7539C65.4668 55.849 65.3301 55.0547 65.0566 54.3711C64.7897 53.681 64.4023 53.1439 63.8945 52.7598C63.3867 52.3757 62.7715 52.1836 62.0488 52.1836C61.2871 52.1836 60.6621 52.3724 60.1738 52.75C59.6921 53.1276 59.334 53.6582 59.0996 54.3418C58.8652 55.0254 58.748 55.8294 58.748 56.7539V56.998C58.748 57.9225 58.8652 58.7331 59.0996 59.4297C59.3405 60.1198 59.7051 60.6569 60.1934 61.041C60.6882 61.4186 61.3132 61.6074 62.0684 61.6074ZM72.127 64V61.998L73.6113 61.6855V52.4375H71.4141L71.3262 53.9707H68.7383V49.7812H81.9512V53.9707H79.334L79.2559 52.4375H77.0391V61.6855L78.5234 61.998V64H72.127ZM89.1582 64.2051C88.1751 64.2051 87.2702 64.026 86.4434 63.668C85.623 63.3034 84.9102 62.7956 84.3047 62.1445C83.6992 61.4935 83.2305 60.7318 82.8984 59.8594C82.5729 58.9805 82.4102 58.0267 82.4102 56.998V56.7734C82.4102 55.7513 82.5729 54.804 82.8984 53.9316C83.2305 53.0592 83.696 52.2975 84.2949 51.6465C84.9004 50.9954 85.6133 50.4876 86.4336 50.123C87.2539 49.7585 88.1556 49.5762 89.1387 49.5762C90.1022 49.5762 90.9974 49.7585 91.8242 50.123C92.651 50.4876 93.3737 50.9954 93.9922 51.6465C94.6172 52.2975 95.1022 53.0592 95.4473 53.9316C95.7923 54.804 95.9648 55.7513 95.9648 56.7734V56.998C95.9648 58.0267 95.7923 58.9805 95.4473 59.8594C95.1022 60.7318 94.6204 61.4935 94.002 62.1445C93.3835 62.7956 92.6608 63.3034 91.834 63.668C91.0072 64.026 90.1152 64.2051 89.1582 64.2051ZM89.1582 61.6074C89.8743 61.6074 90.4863 61.4154 90.9941 61.0312C91.502 60.6471 91.8893 60.11 92.1562 59.4199C92.4232 58.7298 92.5566 57.9225 92.5566 56.998V56.7539C92.5566 55.849 92.4199 55.0547 92.1465 54.3711C91.8796 53.681 91.4922 53.1439 90.9844 52.7598C90.4766 52.3757 89.8613 52.1836 89.1387 52.1836C88.377 52.1836 87.752 52.3724 87.2637 52.75C86.7819 53.1276 86.4238 53.6582 86.1895 54.3418C85.9551 55.0254 85.8379 55.8294 85.8379 56.7539V56.998C85.8379 57.9225 85.9551 58.7331 86.1895 59.4297C86.4303 60.1198 86.7949 60.6569 87.2832 61.041C87.778 61.4186 88.403 61.6074 89.1582 61.6074ZM102.469 58.4141V55.748H113.055V58.4141H102.469ZM122.459 64V61.998L123.943 61.6855V52.4375H121.746L121.658 53.9707H119.07V49.7812H132.283V53.9707H129.666L129.588 52.4375H127.371V61.6855L128.855 61.998V64H122.459ZM136.922 64.2051C136.759 64.2051 136.577 64.2018 136.375 64.1953C136.18 64.1888 136.017 64.1823 135.887 64.1758L135.818 61.5586C135.89 61.5651 136.001 61.5749 136.15 61.5879C136.307 61.5944 136.424 61.5977 136.502 61.5977C137.049 61.5977 137.469 61.4837 137.762 61.2559C138.061 61.028 138.273 60.7025 138.396 60.2793L138.504 59.918L134.451 52.0176L132.713 51.793V49.7812H138.992V51.793L138.025 51.9492L139.832 55.709L139.949 55.9824H140.008L141.482 51.998L140.662 51.793V49.7812H146.463V51.793L144.91 51.998L141.062 61.0801C140.776 61.7311 140.447 62.291 140.076 62.7598C139.712 63.2285 139.272 63.5866 138.758 63.834C138.25 64.0814 137.638 64.2051 136.922 64.2051ZM146.824 64V61.998L148.299 61.6855V52.1055L146.824 51.793V49.7812H148.299H153.738C154.871 49.7812 155.854 49.9798 156.688 50.377C157.521 50.7741 158.162 51.3275 158.611 52.0371C159.067 52.7402 159.295 53.5605 159.295 54.498C159.295 55.4355 159.067 56.2559 158.611 56.959C158.162 57.6621 157.521 58.209 156.688 58.5996C155.854 58.9902 154.871 59.1855 153.738 59.1855H151.727V61.6855L153.201 61.998V64H146.824ZM151.727 56.5586H153.738C154.435 56.5586 154.962 56.3698 155.32 55.9922C155.685 55.6081 155.867 55.1165 155.867 54.5176C155.867 53.8991 155.685 53.3913 155.32 52.9941C154.962 52.597 154.435 52.3984 153.738 52.3984H151.727V56.5586ZM159.93 64V61.998L161.404 61.6855V52.1055L159.93 51.793V49.7812H166.307V51.793L164.832 52.1055V55.6992H170.008V52.1055L168.533 51.793V49.7812H170.008H173.426H174.9V51.793L173.426 52.1055V61.6855L174.9 61.998V64H168.533V61.998L170.008 61.6855V58.3262H164.832V61.6855L166.307 61.998V64H159.93ZM175.926 64V61.998L177.41 61.6855V52.1055L175.926 51.793V49.7812H177.41H180.818H182.303V51.793L180.818 52.1055V57.6816L180.877 57.7012L185.926 52.8281V52.1055L184.461 51.793V49.7812H185.926H189.373H190.838V51.793L189.373 52.1055V61.6855L190.838 61.998V64H184.461V61.998L185.926 61.6855V56.1973L185.867 56.1777L180.818 61.0605V61.6855L182.303 61.998V64H175.926ZM191.551 64V61.998L193.025 61.6855V52.1055L191.551 51.793V49.7812H193.025H198.465C199.598 49.7812 200.581 49.9798 201.414 50.377C202.247 50.7741 202.889 51.3275 203.338 52.0371C203.794 52.7402 204.021 53.5605 204.021 54.498C204.021 55.4355 203.794 56.2559 203.338 56.959C202.889 57.6621 202.247 58.209 201.414 58.5996C200.581 58.9902 199.598 59.1855 198.465 59.1855H196.453V61.6855L197.928 61.998V64H191.551ZM196.453 56.5586H198.465C199.161 56.5586 199.689 56.3698 200.047 55.9922C200.411 55.6081 200.594 55.1165 200.594 54.5176C200.594 53.8991 200.411 53.3913 200.047 52.9941C199.689 52.597 199.161 52.3984 198.465 52.3984H196.453V56.5586Z" fill="white"/>
<path d="M61.2142 66.6119L55.7142 74L50 67L38 79.5L34.5 74L21.5 81L15 77.5L4 83.5L7 89L1.5 107.5L9.5 123.5H231L242.5 116L238.214 110L242.5 87.5L236 76L224.5 82.5L211 65.5L204.5 71L200 65.5M75.2142 47.806L89.2142 29L99.7142 34L120.714 1L140.714 37L149.214 26L159.214 42.5L165.214 37L172.714 47.9821" stroke="white"/>
<path d="M120.715 7C117.882 11.1667 112.215 19.6 112.215 20L113.715 23L116.215 20.5L119.715 26.5L125.715 23L134.715 32.5L120.715 7Z" fill="white"/>
<path d="M210.715 69L205.215 73.5L208.215 76.5L210.715 75.5L218.215 78.5L210.715 69Z" fill="white"/>
<path d="M90.3681 32L86.1758 36.9737L88.7142 39.5L90.3681 37.4737L96.7142 36L90.3681 32Z" fill="white"/>
<path d="M43.2148 77L49.7148 70.5L54.2148 75.5L48.7148 77.5L48.2148 75.5L43.2148 77Z" fill="white"/>
</svg>
