<svg width="328" height="89" viewBox="0 0 328 89" fill="none" xmlns="http://www.w3.org/2000/svg">
<g opacity="0.1">
<rect x="327.5" y="44.5" width="22" height="21" transform="rotate(90 327.5 44.5)" stroke="white"/>
<path d="M327.5 66.5L327.5 79C327.5 84.2467 323.247 88.5 318 88.5L306.5 88.5L306.5 66.5L327.5 66.5Z" stroke="white"/>
<path d="M327.5 10L327.5 22.5L306.5 22.5L306.5 0.499999L318 0.5C323.247 0.5 327.5 4.7533 327.5 10Z" stroke="white"/>
<rect x="327.5" y="22.5" width="21" height="21" transform="rotate(90 327.5 22.5)" stroke="white"/>
<rect x="102.5" y="44.5" width="22" height="21" transform="rotate(90 102.5 44.5)" stroke="white"/>
<rect x="102.5" y="66.5" width="22" height="21" transform="rotate(90 102.5 66.5)" stroke="white"/>
<rect x="102.5" y="0.5" width="22" height="21" transform="rotate(90 102.5 0.5)" stroke="white"/>
<rect x="102.5" y="22.5" width="21" height="21" transform="rotate(90 102.5 22.5)" stroke="white"/>
<rect x="163.5" y="44.5" width="22" height="21" transform="rotate(90 163.5 44.5)" stroke="white"/>
<rect x="163.5" y="66.5" width="22" height="21" transform="rotate(90 163.5 66.5)" stroke="white"/>
<rect x="163.5" y="0.5" width="22" height="21" transform="rotate(90 163.5 0.5)" stroke="white"/>
<rect x="163.5" y="22.5" width="21" height="21" transform="rotate(90 163.5 22.5)" stroke="white"/>
<rect x="41.5" y="44.5" width="22" height="21" transform="rotate(90 41.5 44.5)" stroke="white"/>
<rect x="41.5" y="66.5" width="22" height="21" transform="rotate(90 41.5 66.5)" stroke="white"/>
<rect x="41.5" y="0.5" width="22" height="21" transform="rotate(90 41.5 0.5)" stroke="white"/>
<rect x="41.5" y="22.5" width="21" height="21" transform="rotate(90 41.5 22.5)" stroke="white"/>
<rect x="204.5" y="44.5" width="22" height="21" transform="rotate(90 204.5 44.5)" stroke="white"/>
<rect x="224.5" y="44.5" width="22" height="21" transform="rotate(90 224.5 44.5)" stroke="white"/>
<rect x="244.5" y="44.5" width="22" height="20" transform="rotate(90 244.5 44.5)" stroke="white"/>
<rect x="265.5" y="44.5" width="22" height="20" transform="rotate(90 265.5 44.5)" stroke="white"/>
<rect x="286.5" y="44.5" width="22" height="20" transform="rotate(90 286.5 44.5)" stroke="white"/>
<rect x="307.5" y="44.5" width="22" height="21" transform="rotate(90 307.5 44.5)" stroke="white"/>
<rect x="204.5" y="66.5" width="22" height="21" transform="rotate(90 204.5 66.5)" stroke="white"/>
<rect x="224.5" y="66.5" width="22" height="21" transform="rotate(90 224.5 66.5)" stroke="white"/>
<rect x="244.5" y="66.5" width="22" height="20" transform="rotate(90 244.5 66.5)" stroke="white"/>
<rect x="265.5" y="66.5" width="22" height="20" transform="rotate(90 265.5 66.5)" stroke="white"/>
<rect x="286.5" y="66.5" width="22" height="20" transform="rotate(90 286.5 66.5)" stroke="white"/>
<rect x="307.5" y="66.5" width="22" height="21" transform="rotate(90 307.5 66.5)" stroke="white"/>
<rect x="204.5" y="0.5" width="22" height="21" transform="rotate(90 204.5 0.5)" stroke="white"/>
<rect x="224.5" y="0.5" width="22" height="21" transform="rotate(90 224.5 0.5)" stroke="white"/>
<rect x="244.5" y="0.5" width="22" height="20" transform="rotate(90 244.5 0.5)" stroke="white"/>
<rect x="265.5" y="0.5" width="22" height="20" transform="rotate(90 265.5 0.5)" stroke="white"/>
<rect x="286.5" y="0.5" width="22" height="20" transform="rotate(90 286.5 0.5)" stroke="white"/>
<rect x="307.5" y="0.5" width="22" height="21" transform="rotate(90 307.5 0.5)" stroke="white"/>
<rect x="204.5" y="22.5" width="21" height="21" transform="rotate(90 204.5 22.5)" stroke="white"/>
<rect x="224.5" y="22.5" width="21" height="21" transform="rotate(90 224.5 22.5)" stroke="white"/>
<rect x="244.5" y="22.5" width="21" height="20" transform="rotate(90 244.5 22.5)" stroke="white"/>
<rect x="265.5" y="22.5" width="21" height="20" transform="rotate(90 265.5 22.5)" stroke="white"/>
<rect x="286.5" y="22.5" width="21" height="20" transform="rotate(90 286.5 22.5)" stroke="white"/>
<rect x="307.5" y="22.5" width="21" height="21" transform="rotate(90 307.5 22.5)" stroke="white"/>
<rect x="81.5" y="44.5" width="22" height="20" transform="rotate(90 81.5 44.5)" stroke="white"/>
<rect x="81.5" y="66.5" width="22" height="20" transform="rotate(90 81.5 66.5)" stroke="white"/>
<rect x="81.5" y="0.5" width="22" height="20" transform="rotate(90 81.5 0.5)" stroke="white"/>
<rect x="81.5" y="22.5" width="21" height="20" transform="rotate(90 81.5 22.5)" stroke="white"/>
<rect x="142.5" y="44.5" width="22" height="20" transform="rotate(90 142.5 44.5)" stroke="white"/>
<rect x="142.5" y="66.5" width="22" height="20" transform="rotate(90 142.5 66.5)" stroke="white"/>
<rect x="142.5" y="0.5" width="22" height="20" transform="rotate(90 142.5 0.5)" stroke="white"/>
<rect x="142.5" y="22.5" width="21" height="20" transform="rotate(90 142.5 22.5)" stroke="white"/>
<rect x="21.5" y="44.5" width="22" height="21" transform="rotate(90 21.5 44.5)" stroke="white"/>
<path d="M21.5 66.5L21.5 88.5L10 88.5C4.7533 88.5 0.500001 84.2467 0.500001 79L0.500002 66.5L21.5 66.5Z" stroke="white"/>
<path d="M21.5 0.5L21.5 22.5L0.500001 22.5L0.500001 10C0.500002 4.75329 4.7533 0.499999 10 0.499999L21.5 0.5Z" stroke="white"/>
<rect x="21.5" y="22.5" width="21" height="21" transform="rotate(90 21.5 22.5)" stroke="white"/>
<rect x="183.5" y="44.5" width="22" height="20" transform="rotate(90 183.5 44.5)" stroke="white"/>
<rect x="183.5" y="66.5" width="22" height="20" transform="rotate(90 183.5 66.5)" stroke="white"/>
<rect x="183.5" y="0.5" width="22" height="20" transform="rotate(90 183.5 0.5)" stroke="white"/>
<rect x="183.5" y="22.5" width="21" height="20" transform="rotate(90 183.5 22.5)" stroke="white"/>
<rect x="61.5" y="44.5" width="22" height="20" transform="rotate(90 61.5 44.5)" stroke="white"/>
<rect x="61.5" y="66.5" width="22" height="20" transform="rotate(90 61.5 66.5)" stroke="white"/>
<rect x="61.5" y="0.5" width="22" height="20" transform="rotate(90 61.5 0.5)" stroke="white"/>
<rect x="61.5" y="22.5" width="21" height="20" transform="rotate(90 61.5 22.5)" stroke="white"/>
<rect x="122.5" y="44.5" width="22" height="21" transform="rotate(90 122.5 44.5)" stroke="white"/>
<rect x="122.5" y="66.5" width="22" height="21" transform="rotate(90 122.5 66.5)" stroke="white"/>
<rect x="122.5" y="0.5" width="22" height="21" transform="rotate(90 122.5 0.5)" stroke="white"/>
<rect x="122.5" y="22.5" width="21" height="21" transform="rotate(90 122.5 22.5)" stroke="white"/>
</g>
</svg>
