<svg width="69" height="166" viewBox="0 0 69 166" fill="none" xmlns="http://www.w3.org/2000/svg">
<g filter="url(#filter0_d_2139_1532)">
<path d="M20.5 161.5L34.5632 154.288C37.9009 152.576 40 149.141 40 145.39V99.0873C40 94.9845 37.9039 91.1661 34.4425 88.9634L18.2944 78.6873C16.6063 77.6131 17.3672 75 19.3681 75H53.5V75C59.299 75 64 70.299 64 64.5V19V14C64 9.02944 59.9706 5 55 5H4" stroke="url(#paint0_radial_2139_1532)" stroke-opacity="0.36" shape-rendering="crispEdges"/>
</g>
<path d="M20.5 161.5L34.5632 154.288C37.9009 152.576 40 149.141 40 145.39V99.0873C40 94.9845 37.9039 91.1661 34.4425 88.9634L18.2944 78.6873C16.6063 77.6131 17.3672 75 19.3681 75H53.5V75C59.299 75 64 70.299 64 64.5V19V14C64 9.02944 59.9706 5 55 5H4" stroke="url(#paint1_radial_2139_1532)" stroke-opacity="0.36"/>
<defs>
<filter id="filter0_d_2139_1532" x="0" y="0.5" width="68.5" height="165.445" filterUnits="userSpaceOnUse" color-interpolation-filters="sRGB">
<feFlood flood-opacity="0" result="BackgroundImageFix"/>
<feColorMatrix in="SourceAlpha" type="matrix" values="0 0 0 0 0 0 0 0 0 0 0 0 0 0 0 0 0 0 127 0" result="hardAlpha"/>
<feOffset/>
<feGaussianBlur stdDeviation="2"/>
<feComposite in2="hardAlpha" operator="out"/>
<feColorMatrix type="matrix" values="0 0 0 0 1 0 0 0 0 1 0 0 0 0 1 0 0 0 0.4 0"/>
<feBlend mode="normal" in2="BackgroundImageFix" result="effect1_dropShadow_2139_1532"/>
<feBlend mode="normal" in="SourceGraphic" in2="effect1_dropShadow_2139_1532" result="shape"/>
</filter>
<radialGradient id="paint0_radial_2139_1532" cx="0" cy="0" r="1" gradientUnits="userSpaceOnUse" gradientTransform="translate(59.5 83) rotate(117.897) scale(38.4708 36.1335)">
<stop stop-color="white"/>
<stop offset="1" stop-color="white" stop-opacity="0"/>
</radialGradient>
<radialGradient id="paint1_radial_2139_1532" cx="0" cy="0" r="1" gradientUnits="userSpaceOnUse" gradientTransform="translate(55.5 69.5) rotate(120.789) scale(112.332 62.5776)">
<stop stop-color="white"/>
<stop offset="1" stop-color="white" stop-opacity="0"/>
</radialGradient>
</defs>
</svg>
