<svg width="14" height="11" viewBox="0 0 14 11" fill="none" xmlns="http://www.w3.org/2000/svg">
<path fill-rule="evenodd" clip-rule="evenodd" d="M3.88889 0.115234H7.97222V1.6537H3.88889V4.24891L6.34069 6.57677H7.65931L10.1111 4.24891V0.884465H11.6667V1.6537H12.7666L14 2.87353V5.81848L12.7666 7.03831H10.8889V5.64309L8.28513 8.11523H5.71487L3.11111 5.64309V7.03831H1.23339L0 5.81848V2.87353L1.23339 1.6537H2.33333L3.88889 0.115234ZM2.33333 3.19216H1.87772L1.55556 3.51078V5.18122L1.87772 5.49985H2.96024L2.33333 4.90463V3.19216ZM11.6667 4.90463V3.19216H12.1223L12.4444 3.51078V5.18122L12.1223 5.49985H11.0398L11.6667 4.90463ZM6.22222 9.346V8.26908H7.77778V9.346H9.91667V10.8845H4.08333V9.346H6.22222Z" fill="#002E18"/>
</svg>
