<svg width="27" height="21" viewBox="0 0 27 21" fill="none" xmlns="http://www.w3.org/2000/svg">
<path fill-rule="evenodd" clip-rule="evenodd" d="M7.5 0H15.375V3H7.5V8.06067L12.2285 12.6H14.7715L19.5 8.06067V1.5H22.5V3H24.6213L27 5.37868V11.1213L24.6213 13.5H21V10.7793L15.9785 15.6H11.0215L6 10.7793V13.5H2.37868L0 11.1213V5.37868L2.37868 3H4.5L7.5 0ZM4.5 6H3.62132L3 6.62132V9.87868L3.62132 10.5H5.70903L4.5 9.33933V6ZM22.5 9.33933V6H23.3787L24 6.62132V9.87868L23.3787 10.5H21.291L22.5 9.33933ZM12 18V15.9H15V18H19.125V21H7.875V18H12Z" fill="white"/>
</svg>
