<svg width="27" height="35" viewBox="0 0 27 35" fill="none" xmlns="http://www.w3.org/2000/svg">
<path fill-rule="evenodd" clip-rule="evenodd" d="M13.6098 0L22.1159 8.57246V27.1377L19.9164 29.3544L17.5105 26.9297L18.7135 25.7174V18.5652L17.7169 19.5696H9.50269L8.50613 18.5652V25.7174L9.70908 26.9297L7.30318 29.3544L5.10368 27.1377V29.8565H4.10712L0 33.9957L0 22.2884L3.90073 18.3572L5.10368 19.5696V8.57246L13.6098 0ZM8.50613 13.7159L10.912 16.1406H16.3076L18.7135 13.7159V9.99279L13.6098 4.84931L8.50613 9.99279V13.7159ZM5.10368 21.9942L3.40245 23.7087V26.4275H5.10368L5.10368 21.9942Z" fill="#EDA623"/>
<path d="M23.0993 18.3572L20.6934 20.7819L23.5975 23.7087V26.4275H21.8963V29.8565H22.8929L27 33.9957L27 22.2884L23.0993 18.3572Z" fill="#EDA623"/>
<path d="M11.9086 25.7174V33.2855H15.311V25.7174H11.9086Z" fill="#EDA623"/>
<path d="M6.80491 35V31.571H10.2074V35H6.80491Z" fill="#EDA623"/>
<path d="M16.7043 35L16.7043 30.6884H20.1067L20.1067 35H16.7043Z" fill="#EDA623"/>
</svg>
