<svg width="60" height="66" viewBox="0 0 60 66" fill="none" xmlns="http://www.w3.org/2000/svg"><path d="M56.97 15.389 31.869.997a3.76 3.76 0 0 0-3.738 0L3.028 15.39a3.714 3.714 0 0 0-1.872 3.22V47.39c0 1.33.715 2.557 1.872 3.22L28.13 65.004a3.76 3.76 0 0 0 3.738 0L56.971 50.61a3.714 3.714 0 0 0 1.871-3.22V18.61c0-1.33-.715-2.557-1.871-3.22Z" stroke="#007B41"/><path fill-rule="evenodd" clip-rule="evenodd" d="m41.656 26.676-2.973 3.084-7.795-8.084h-2.463L20.63 29.76l-2.974-3.084 9.027-9.36h5.947l9.026 9.36Z" fill="#007B41"/><path fill="#007B41" d="M32.324 48.871h-4.889V25.316h4.89z"/></svg>