<svg width="37" height="35" viewBox="0 0 37 35" fill="none" xmlns="http://www.w3.org/2000/svg">
<path d="M33.4856 5.70281L28.0351 4.36608L25.3016 0H18.6273L24.4386 9.2822L35.1711 11.9142L33.4856 5.70281Z" fill="#EDA623"/>
<path d="M35.2041 12.036L28.0841 20.4246L28.8662 31.1858L34.3229 28.0749L33.9034 22.3024L37 18.654L35.2041 12.036Z" fill="#EDA623"/>
<path d="M22.3237 34.9156L28.563 31.3587L18.5401 27.311L8.30814 31.443L14.5474 35L18.5401 33.3876L22.3237 34.9156Z" fill="#EDA623"/>
<path d="M8.99607 20.4246L8.1997 31.3812L2.74301 28.2704L3.17679 22.3024L0 18.5596L1.79615 11.9419L8.99607 20.4246Z" fill="#EDA623"/>
<path d="M1.79615 11.9419L3.48125 5.73059L9.04504 4.36608L11.7785 0H18.4528L12.6415 9.2822L1.79615 11.9419Z" fill="#EDA623"/>
</svg>
