<svg width="23" height="22" viewBox="0 0 23 22" fill="none" xmlns="http://www.w3.org/2000/svg"><path fill-rule="evenodd" clip-rule="evenodd" d="m13.08 8.455-.043-2.303 4.195.11.937-.937-.11-4.194 2.303.042.127 5.148-2.261 2.262-5.149-.128ZM9.92 12.779l.042 2.303-4.194-.11-.936.937.11 4.195-2.304-.042-.127-5.149 2.261-2.261 5.149.127Z" fill="#EDA623"/><path fill-rule="evenodd" clip-rule="evenodd" d="M6.724 1.383h8.521l4.093 4.093-1.956 1.955L14.1 4.15H7.87L4.992 7.026v3.115H2.227v-4.26l4.497-4.498ZM16.276 19.852H7.755l-4.093-4.093 1.956-1.956L8.9 17.086h6.23l2.878-2.878v-3.115h2.765v4.26l-4.497 4.499Z" fill="#EDA623"/></svg>